Amstlevar-Italic-opsz144-wght900-wdth100.ufo
<glyph name="exclam" format="2">
  <advance width="771"/>
  <unicode hex="0021"/>
  <outline>
    <contour>
      <point x="103.0" y="175.0" type="qcurve" smooth="yes"/>
      <point x="107.0" y="264.0"/>
      <point x="214.0" y="372.0"/>
      <point x="304.0" y="372.0" type="qcurve" smooth="yes"/>
      <point x="388.0" y="372.0"/>
      <point x="488.0" y="260.0"/>
      <point x="481.0" y="175.0" type="qcurve" smooth="yes"/>
      <point x="477.0" y="86.0"/>
      <point x="369.0" y="-20.0"/>
      <point x="279.0" y="-20.0" type="qcurve" smooth="yes"/>
      <point x="195.0" y="-20.0"/>
      <point x="97.0" y="90.0"/>
    </contour>
    <contour>
      <point x="288.0" y="1345.0" type="line" smooth="yes"/>
      <point x="288" y="1430"/>
      <point x="454.0" y="1545.0"/>
      <point x="546.0" y="1545.0" type="qcurve" smooth="yes"/>
      <point x="639.0" y="1546.0"/>
      <point x="761" y="1427"/>
      <point x="731.0" y="1345.0" type="qcurve" smooth="yes"/>
      <point x="649.0" y="1118.0" type="line"/>
      <point x="548.0" y="933.0" type="line"/>
      <point x="391.0" y="479.0" type="line"/>
      <point x="301.0" y="490.0" type="line"/>
      <point x="301.0" y="924.0" type="line"/>
      <point x="288.0" y="1130.0" type="line"/>
    </contour>
  </outline>
</glyph>
<glyph name="numbersign" format="2">
  <advance width="1198"/>
  <unicode hex="0023"/>
  <outline>
    <contour>
      <point x="39.0" y="397.0" type="line"/>
      <point x="100.0" y="624.0" type="line"/>
      <point x="1070.0" y="624.0" type="line"/>
      <point x="1009.0" y="397.0" type="line"/>
    </contour>
    <contour>
      <point x="137.0" y="859.0" type="line"/>
      <point x="198.0" y="1086.0" type="line"/>
      <point x="1168.0" y="1086.0" type="line"/>
      <point x="1107.0" y="859.0" type="line"/>
    </contour>
    <contour>
      <point x="183.0" y="15.0" type="line"/>
      <point x="626.0" y="1453.0" type="line"/>
      <point x="673.0" y="1448.0" type="line"/>
      <point x="230.0" y="10.0" type="line"/>
    </contour>
    <contour>
      <point x="552.0" y="22.0" type="line"/>
      <point x="995.0" y="1460.0" type="line"/>
      <point x="1041.0" y="1456.0" type="line"/>
      <point x="598.0" y="18.0" type="line"/>
    </contour>
  </outline>
</glyph>
<glyph name="percent" format="2">
  <advance width="1747"/>
  <unicode hex="0025"/>
  <outline>
    <contour>
      <point x="89.0" y="1073.0" type="qcurve" smooth="yes"/>
      <point x="127.0" y="1262.0"/>
      <point x="417.0" y="1531.0"/>
      <point x="614.0" y="1531.0" type="qcurve" smooth="yes"/>
      <point x="738.0" y="1531.0"/>
      <point x="920.0" y="1278.0"/>
      <point x="878.0" y="1074.0" type="qcurve" smooth="yes"/>
      <point x="839.0" y="883.0"/>
      <point x="551.0" y="612.0"/>
      <point x="372.0" y="611.0" type="qcurve" smooth="yes"/>
      <point x="228.0" y="610.0"/>
      <point x="47.0" y="866.0"/>
    </contour>
    <contour>
      <point x="354.0" y="1091.0" type="qcurve" smooth="yes"/>
      <point x="314.0" y="917.0"/>
      <point x="324.0" y="655.0"/>
      <point x="394.0" y="655.0" type="qcurve" smooth="yes"/>
      <point x="467.0" y="654.0"/>
      <point x="572.0" y="892.0"/>
      <point x="613.0" y="1075.0" type="qcurve" smooth="yes"/>
      <point x="652.0" y="1243.0"/>
      <point x="641.0" y="1481.0"/>
      <point x="571.0" y="1481.0" type="qcurve" smooth="yes"/>
      <point x="497.0" y="1482.0"/>
      <point x="394.0" y="1264.0"/>
    </contour>
    <contour>
      <point x="312.0" y="-4.0" type="line"/>
      <point x="1357.0" y="1520.0" type="line"/>
      <point x="1420.0" y="1470.0" type="line"/>
      <point x="377.0" y="-51.0" type="line"/>
    </contour>
    <contour>
      <point x="884.0" y="448.0" type="qcurve" smooth="yes"/>
      <point x="922.0" y="637.0"/>
      <point x="1212.0" y="906.0"/>
      <point x="1409.0" y="906.0" type="qcurve" smooth="yes"/>
      <point x="1533.0" y="906.0"/>
      <point x="1710.0" y="653.0"/>
      <point x="1673.0" y="449.0" type="qcurve" smooth="yes"/>
      <point x="1639.0" y="258.0"/>
      <point x="1346.0" y="-13.0"/>
      <point x="1167.0" y="-14.0" type="qcurve" smooth="yes"/>
      <point x="1023.0" y="-15.0"/>
      <point x="842.0" y="241.0"/>
    </contour>
    <contour>
      <point x="1149.0" y="466.0" type="qcurve" smooth="yes"/>
      <point x="1109.0" y="292.0"/>
      <point x="1119.0" y="30.0"/>
      <point x="1189.0" y="30.0" type="qcurve" smooth="yes"/>
      <point x="1262.0" y="29.0"/>
      <point x="1373.0" y="267.0"/>
      <point x="1408.0" y="450.0" type="qcurve" smooth="yes"/>
      <point x="1442.0" y="618.0"/>
      <point x="1436.0" y="856.0"/>
      <point x="1366.0" y="856.0" type="qcurve" smooth="yes"/>
      <point x="1292.0" y="857.0"/>
      <point x="1189.0" y="639.0"/>
    </contour>
  </outline>
</glyph>
<glyph name="ampersand" format="2">
  <advance width="1538"/>
  <unicode hex="0026"/>
  <outline>
    <contour>
      <point x="1135.0" y="-14.0" type="line"/>
      <point x="975.0" y="223.0" type="line"/>
      <point x="894.0" y="106.0"/>
      <point x="617.0" y="-20.0"/>
      <point x="446.0" y="-20.0" type="qcurve" smooth="yes"/>
      <point x="204.0" y="-20.0"/>
      <point x="-35.0" y="226.0"/>
      <point x="-5.0" y="402.0" type="qcurve" smooth="yes"/>
      <point x="27" y="587"/>
      <point x="322.0" y="785.0"/>
      <point x="571.0" y="794.0" type="qcurve"/>
      <point x="412.0" y="837.0"/>
      <point x="236" y="1074"/>
      <point x="261" y="1235" type="qcurve" smooth="yes"/>
      <point x="286" y="1398"/>
      <point x="554.0" y="1549.0"/>
      <point x="751" y="1542" type="qcurve" smooth="yes"/>
      <point x="917" y="1536"/>
      <point x="1106.0" y="1452.0"/>
      <point x="1114.0" y="1450.0" type="qcurve" smooth="yes"/>
      <point x="1137.0" y="1448.0"/>
      <point x="1177.0" y="1481.0"/>
      <point x="1184.0" y="1501.0" type="qcurve"/>
      <point x="1293.0" y="1501.0" type="line"/>
      <point x="1209.0" y="1102.0" type="line"/>
      <point x="1129.0" y="1102.0" type="line"/>
      <point x="1119" y="1224" type="line" smooth="yes"/>
      <point x="1111" y="1321"/>
      <point x="1004" y="1446.0"/>
      <point x="910.0" y="1446.0" type="qcurve" smooth="yes"/>
      <point x="808" y="1446"/>
      <point x="709.0" y="1340.0"/>
      <point x="681.0" y="1170.0" type="qcurve" smooth="yes"/>
      <point x="653" y="1000"/>
      <point x="839" y="816.0"/>
      <point x="1038" y="816.0" type="qcurve" smooth="yes"/>
      <point x="1180" y="816"/>
      <point x="1438.0" y="853.0"/>
      <point x="1519.0" y="919.0" type="qcurve"/>
      <point x="1559.0" y="871.0" type="line"/>
      <point x="1543.0" y="817.0"/>
      <point x="1435.0" y="675.0"/>
      <point x="1341.0" y="675.0" type="qcurve" smooth="yes"/>
      <point x="1254.0" y="675.0"/>
      <point x="880.0" y="738.0"/>
      <point x="810.0" y="738.0" type="qcurve" smooth="yes"/>
      <point x="649.0" y="738.0"/>
      <point x="495" y="562"/>
      <point x="460.0" y="392.0" type="qcurve" smooth="yes"/>
      <point x="427.0" y="234.0"/>
      <point x="473" y="100"/>
      <point x="554" y="100.0" type="qcurve" smooth="yes"/>
      <point x="630" y="100.0"/>
      <point x="803" y="275"/>
      <point x="843.0" y="500.0" type="qcurve" smooth="yes"/>
      <point x="902.0" y="777.0" type="line"/>
      <point x="1325.0" y="769.0" type="line"/>
      <point x="1265.0" y="551.0"/>
      <point x="1235.0" y="147.0"/>
      <point x="1274.0" y="15.0" type="qcurve"/>
    </contour>
  </outline>
</glyph>
<glyph name="quotesingle" format="2">
  <advance width="583"/>
  <unicode hex="0027"/>
  <outline>
    <contour>
      <point x="268.0" y="934.0" type="line"/>
      <point x="283.0" y="1383.0" type="line" smooth="yes"/>
      <point x="286.0" y="1462.0"/>
      <point x="371.0" y="1558.0"/>
      <point x="459.0" y="1558.0" type="qcurve" smooth="yes"/>
      <point x="542.0" y="1558.0"/>
      <point x="608.0" y="1437.0"/>
      <point x="568.0" y="1368.0" type="qcurve" smooth="yes"/>
      <point x="333.0" y="934.0" type="line"/>
    </contour>
  </outline>
</glyph>
<glyph name="parenleft" format="2">
  <advance width="785"/>
  <unicode hex="0028"/>
  <outline>
    <contour>
      <point x="108.0" y="702.0" type="qcurve" smooth="yes"/>
      <point x="145.0" y="974.0"/>
      <point x="604.0" y="1427.0"/>
      <point x="875.0" y="1538.0" type="qcurve"/>
      <point x="924.0" y="1502.0" type="line"/>
      <point x="801.0" y="1378.0"/>
      <point x="608.0" y="936.0"/>
      <point x="571.0" y="705.0" type="qcurve" smooth="yes"/>
      <point x="533.0" y="470.0"/>
      <point x="561.0" y="40.0"/>
      <point x="635.0" y="-92.0" type="qcurve"/>
      <point x="576.0" y="-140.0" type="line"/>
      <point x="338.0" y="-17.0"/>
      <point x="71.0" y="428.0"/>
    </contour>
  </outline>
</glyph>
<glyph name="parenright" format="2">
  <advance width="785"/>
  <unicode hex="0029"/>
  <outline>
    <contour>
      <point x="668.0" y="694.0" type="qcurve" smooth="yes"/>
      <point x="632.0" y="431.0"/>
      <point x="173.0" y="-32.0"/>
      <point x="-99.0" y="-143.0" type="qcurve"/>
      <point x="-149.0" y="-107.0" type="line"/>
      <point x="-28.0" y="22.0"/>
      <point x="167.0" y="459.0"/>
      <point x="205.0" y="691.0" type="qcurve" smooth="yes"/>
      <point x="243.0" y="925.0"/>
      <point x="219.0" y="1359.0"/>
      <point x="142.0" y="1488.0" type="qcurve"/>
      <point x="200.0" y="1536.0" type="line"/>
      <point x="438.0" y="1413.0"/>
      <point x="706.0" y="978.0"/>
    </contour>
  </outline>
</glyph>
<glyph name="asterisk" format="2">
  <advance width="858"/>
  <unicode hex="002A"/>
  <outline>
    <contour>
      <point x="432.0" y="806.0" type="qcurve" smooth="yes"/>
      <point x="396.0" y="816.0"/>
      <point x="344.0" y="819.0"/>
      <point x="368.0" y="865.0" type="qcurve" smooth="yes"/>
      <point x="516.0" y="1150.0" type="line"/>
      <point x="516.0" y="1153.0" type="line"/>
      <point x="225.0" y="1012.0" type="line" smooth="yes"/>
      <point x="180.0" y="990.0"/>
      <point x="181.0" y="1034.0"/>
      <point x="171.0" y="1071.0" type="qcurve" smooth="yes"/>
      <point x="161.0" y="1107.0"/>
      <point x="142.0" y="1153.0"/>
      <point x="189.0" y="1156.0" type="qcurve" smooth="yes"/>
      <point x="510.0" y="1171.0" type="line"/>
      <point x="511.0" y="1173.0" type="line"/>
      <point x="243.0" y="1351.0" type="line" smooth="yes"/>
      <point x="202.0" y="1377.0"/>
      <point x="242.0" y="1406.0"/>
      <point x="269.0" y="1433.0" type="qcurve" smooth="yes"/>
      <point x="296.0" y="1459.0"/>
      <point x="327.0" y="1500.0"/>
      <point x="351.0" y="1458.0" type="qcurve" smooth="yes"/>
      <point x="524.0" y="1188.0" type="line"/>
      <point x="527.0" y="1189.0" type="line"/>
      <point x="546.0" y="1511.0" type="line" smooth="yes"/>
      <point x="548.0" y="1562.0"/>
      <point x="593.0" y="1539.0"/>
      <point x="628.0" y="1529.0" type="qcurve" smooth="yes"/>
      <point x="665.0" y="1519.0"/>
      <point x="718.0" y="1515.0"/>
      <point x="693.0" y="1470.0" type="qcurve" smooth="yes"/>
      <point x="545.0" y="1184.0" type="line"/>
      <point x="546.0" y="1180.0" type="line"/>
      <point x="834.0" y="1322.0" type="line" smooth="yes"/>
      <point x="879.0" y="1344.0"/>
      <point x="880.0" y="1301.0"/>
      <point x="890.0" y="1264.0" type="qcurve" smooth="yes"/>
      <point x="899.0" y="1228.0"/>
      <point x="920.0" y="1180.0"/>
      <point x="872.0" y="1180.0" type="qcurve" smooth="yes"/>
      <point x="552.0" y="1163.0" type="line"/>
      <point x="550.0" y="1160.0" type="line"/>
      <point x="786.0" y="1025.0" type="line" smooth="yes"/>
      <point x="827.0" y="999.0"/>
      <point x="819.0" y="929.0"/>
      <point x="792.0" y="902.0" type="qcurve" smooth="yes"/>
      <point x="764.0" y="875.0"/>
      <point x="687.0" y="879.0"/>
      <point x="665.0" y="922.0" type="qcurve" smooth="yes"/>
      <point x="538.0" y="1147.0" type="line"/>
      <point x="535.0" y="1145.0" type="line"/>
      <point x="516.0" y="824.0" type="line" smooth="yes"/>
      <point x="513.0" y="772.0"/>
      <point x="469.0" y="796.0"/>
    </contour>
  </outline>
</glyph>
<glyph name="plus" format="2">
  <advance width="938"/>
  <unicode hex="002B"/>
  <outline>
    <contour>
      <point x="57.0" y="516.0" type="line"/>
      <point x="57.0" y="748.0" type="line"/>
      <point x="858.0" y="748.0" type="line"/>
      <point x="858.0" y="516.0" type="line"/>
    </contour>
    <contour>
      <point x="339.0" y="231.0" type="line"/>
      <point x="339.0" y="1033.0" type="line"/>
      <point x="575.0" y="1033.0" type="line"/>
      <point x="575.0" y="231.0" type="line"/>
    </contour>
  </outline>
</glyph>
<glyph name="comma" format="2">
  <advance width="633"/>
  <unicode hex="002C"/>
  <outline>
    <contour>
      <point x="16.0" y="-274.0" type="line"/>
      <point x="104.0" y="-201.0"/>
      <point x="226.0" y="-67.0"/>
      <point x="257.0" y="-8.0" type="qcurve"/>
      <point x="140.0" y="-10.0"/>
      <point x="11.0" y="98.0"/>
      <point x="11.0" y="192.0" type="qcurve" smooth="yes"/>
      <point x="11.0" y="270.0"/>
      <point x="128.0" y="389.0"/>
      <point x="217.0" y="389.0" type="qcurve" smooth="yes"/>
      <point x="309.0" y="389.0"/>
      <point x="435.0" y="279.0"/>
      <point x="435.0" y="153.0" type="qcurve" smooth="yes"/>
      <point x="435.0" y="12.0"/>
      <point x="229.0" y="-231.0"/>
      <point x="50.0" y="-323.0" type="qcurve"/>
    </contour>
  </outline>
</glyph>
<glyph name="period" format="2">
  <advance width="633"/>
  <unicode hex="002E"/>
  <outline>
    <contour>
      <point x="-1.0" y="179.0" type="qcurve" smooth="yes"/>
      <point x="-1.0" y="261.0"/>
      <point x="118.0" y="380.0"/>
      <point x="211.0" y="380.0" type="qcurve" smooth="yes"/>
      <point x="303.0" y="380.0"/>
      <point x="424.0" y="261.0"/>
      <point x="424.0" y="179.0" type="qcurve" smooth="yes"/>
      <point x="424.0" y="98.0"/>
      <point x="303.0" y="-22.0"/>
      <point x="211.0" y="-22.0" type="qcurve" smooth="yes"/>
      <point x="118.0" y="-22.0"/>
      <point x="-1.0" y="98.0"/>
    </contour>
  </outline>
</glyph>
<glyph name="slash" format="2">
  <advance width="606"/>
  <unicode hex="002F"/>
  <outline>
    <contour>
      <point x="-95.0" y="-78.0" type="line"/>
      <point x="520.0" y="1600.0" type="line"/>
      <point x="732.0" y="1530.0" type="line"/>
      <point x="119.0" y="-147.0" type="line"/>
    </contour>
  </outline>
</glyph>
<glyph name="one" format="2">
  <advance width="904"/>
  <unicode hex="0031"/>
  <outline>
    <contour>
      <point x="159.0" y="27.0" type="line"/>
      <point x="177.0" y="61.0"/>
      <point x="212" y="152"/>
      <point x="246.0" y="314.0" type="qcurve" smooth="yes"/>
      <point x="397.0" y="1035.0" type="line"/>
      <point x="446.0" y="1284.0" type="line"/>
      <point x="76.0" y="1109.0" type="line"/>
      <point x="39.0" y="1209.0" type="line"/>
      <point x="780.0" y="1527.0" type="line"/>
      <point x="916.0" y="1443.0" type="line"/>
      <point x="895.0" y="1401.0"/>
      <point x="883.0" y="1303.0"/>
      <point x="869.0" y="1235.0" type="qcurve" smooth="yes"/>
      <point x="756.0" y="714.0" type="line"/>
      <point x="656.0" y="143.0" type="line"/>
      <point x="283.0" y="-33.0" type="line"/>
    </contour>
  </outline>
</glyph>
<glyph name="three" format="2">
  <advance width="1175"/>
  <unicode hex="0033"/>
  <outline>
    <contour>
      <point x="-21.0" y="250.0" type="qcurve" smooth="yes"/>
      <point x="-21.0" y="295.0"/>
      <point x="45.0" y="359.0"/>
      <point x="83.0" y="356.0" type="qcurve"/>
      <point x="119.0" y="355.0" type="line"/>
      <point x="114.0" y="321.0"/>
      <point x="111.0" y="278.0"/>
      <point x="112.0" y="239.0" type="qcurve" smooth="yes"/>
      <point x="122.0" y="178.0"/>
      <point x="268.0" y="60.0"/>
      <point x="377.0" y="60.0" type="qcurve" smooth="yes"/>
      <point x="496.0" y="60.0"/>
      <point x="651.0" y="252.0"/>
      <point x="651.0" y="452.0" type="qcurve" smooth="yes"/>
      <point x="651.0" y="602.0"/>
      <point x="537.0" y="768.0"/>
      <point x="405.0" y="769.0" type="qcurve" smooth="yes"/>
      <point x="306.0" y="772.0" type="line"/>
      <point x="306.0" y="847.0" type="line"/>
      <point x="371.0" y="845.0" type="line" smooth="yes"/>
      <point x="524.0" y="840.0"/>
      <point x="701.0" y="1016.0"/>
      <point x="701.0" y="1133.0" type="qcurve" smooth="yes"/>
      <point x="701.0" y="1208.0"/>
      <point x="602.0" y="1334.0"/>
      <point x="508.0" y="1334.0" type="qcurve" smooth="yes"/>
      <point x="448.0" y="1334.0"/>
      <point x="272.0" y="1240.0"/>
      <point x="228.0" y="1171.0" type="qcurve"/>
      <point x="199.0" y="1251.0" type="line"/>
      <point x="251.0" y="1353.0"/>
      <point x="476.0" y="1505.0"/>
      <point x="662.0" y="1504.0" type="qcurve" smooth="yes"/>
      <point x="889.0" y="1503.0"/>
      <point x="1105.0" y="1353.0"/>
      <point x="1105.0" y="1224.0" type="qcurve" smooth="yes"/>
      <point x="1105.0" y="1074.0"/>
      <point x="875.0" y="873.0"/>
      <point x="709.0" y="826.0" type="qcurve"/>
      <point x="708.0" y="819.0" type="line"/>
      <point x="869.0" y="800.0"/>
      <point x="1055.0" y="605.0"/>
      <point x="1055.0" y="463.0" type="qcurve" smooth="yes"/>
      <point x="1055.0" y="272.0"/>
      <point x="715.0" y="-18.0"/>
      <point x="411.0" y="-18.0" type="qcurve" smooth="yes"/>
      <point x="188.0" y="-18.0"/>
      <point x="-21.0" y="161.0"/>
    </contour>
  </outline>
</glyph>
<glyph name="four" format="2">
  <advance width="1227"/>
  <unicode hex="0034"/>
  <outline>
    <contour>
      <point x="-30" y="405" type="line"/>
      <point x="-49" y="500" type="line"/>
      <point x="909" y="1569" type="line"/>
      <point x="1151" y="1424" type="line"/>
      <point x="1159" y="1374" type="line"/>
      <point x="990" y="513" type="line"/>
      <point x="985" y="486" type="line"/>
      <point x="937" y="186" type="line"/>
      <point x="947" y="73" type="line"/>
      <point x="547" y="-35" type="line"/>
      <point x="467" y="14" type="line"/>
      <point x="574" y="488" type="line"/>
      <point x="582" y="513" type="line"/>
      <point x="728" y="1249" type="line"/>
      <point x="115" y="566" type="line"/>
      <point x="119" y="556" type="line"/>
      <point x="817" y="553" type="line"/>
      <point x="1212" y="560" type="line"/>
      <point x="1180" y="404" type="line"/>
      <point x="806" y="408" type="line"/>
    </contour>
  </outline>
</glyph>
<glyph name="five" format="2">
  <advance width="1114"/>
  <unicode hex="0035"/>
  <outline>
    <contour>
      <point x="-123" y="223" type="qcurve" smooth="yes"/>
      <point x="-123" y="299"/>
      <point x="-31" y="377"/>
      <point x="27" y="377" type="qcurve"/>
      <point x="63" y="377" type="line"/>
      <point x="63" y="256" type="line" smooth="yes"/>
      <point x="63" y="161.0"/>
      <point x="172" y="52"/>
      <point x="295" y="52" type="qcurve" smooth="yes"/>
      <point x="444" y="52"/>
      <point x="597" y="305"/>
      <point x="597.0" y="530" type="qcurve" smooth="yes"/>
      <point x="597.0" y="715.0"/>
      <point x="356" y="847"/>
      <point x="182" y="777" type="qcurve" smooth="yes"/>
      <point x="135" y="758" type="line"/>
      <point x="85" y="816" type="line"/>
      <point x="235" y="1467" type="line"/>
      <point x="267" y="1500" type="line"/>
      <point x="1083" y="1500" type="line"/>
      <point x="1003" y="1120" type="line"/>
      <point x="255" y="1120" type="line"/>
      <point x="244" y="1109" type="line"/>
      <point x="232" y="1069"/>
      <point x="195" y="911"/>
      <point x="186" y="867" type="qcurve"/>
      <point x="440" y="958" type="line"/>
      <point x="726" y="968"/>
      <point x="1062" y="756"/>
      <point x="1062.0" y="555" type="qcurve" smooth="yes"/>
      <point x="1062.0" y="315.0"/>
      <point x="662" y="-22"/>
      <point x="336" y="-22" type="qcurve" smooth="yes"/>
      <point x="74" y="-22"/>
      <point x="-123" y="121"/>
    </contour>
  </outline>
</glyph>
<glyph name="six" format="2">
  <advance width="1282"/>
  <unicode hex="0036"/>
  <outline>
    <contour>
      <point x="6" y="471" type="qcurve" smooth="yes"/>
      <point x="26" y="874"/>
      <point x="785" y="1456"/>
      <point x="1252" y="1551" type="qcurve"/>
      <point x="1271" y="1461" type="line"/>
      <point x="954" y="1385"/>
      <point x="499" y="863"/>
      <point x="452" y="491" type="qcurve" smooth="yes"/>
      <point x="416" y="203"/>
      <point x="468" y="49"/>
      <point x="551" y="43" type="qcurve" smooth="yes"/>
      <point x="635" y="37"/>
      <point x="759" y="226"/>
      <point x="790" y="418" type="qcurve" smooth="yes"/>
      <point x="822" y="614"/>
      <point x="771" y="759"/>
      <point x="687" y="759" type="qcurve" smooth="yes"/>
      <point x="658" y="759"/>
      <point x="610" y="745"/>
      <point x="584" y="732" type="qcurve"/>
      <point x="571" y="799" type="line"/>
      <point x="621" y="829"/>
      <point x="782" y="886"/>
      <point x="899" y="886" type="qcurve" smooth="yes"/>
      <point x="1055" y="886"/>
      <point x="1260" y="665"/>
      <point x="1220" y="467" type="qcurve" smooth="yes"/>
      <point x="1175" y="246"/>
      <point x="828" y="-21"/>
      <point x="543" y="-21" type="qcurve" smooth="yes"/>
      <point x="303.0" y="-21"/>
      <point x="-6" y="230"/>
    </contour>
  </outline>
</glyph>
<glyph name="seven" format="2">
  <advance width="1034"/>
  <unicode hex="0037"/>
  <outline>
    <contour>
      <point x="116" y="1017" type="line"/>
      <point x="237" y="1500" type="line"/>
      <point x="1214" y="1500" type="line"/>
      <point x="1244" y="1427" type="line"/>
      <point x="938" y="1133"/>
      <point x="517" y="476"/>
      <point x="439" y="81" type="qcurve"/>
      <point x="178" y="-32" type="line"/>
      <point x="118" y="21" type="line"/>
      <point x="222" y="380"/>
      <point x="649" y="924"/>
      <point x="854" y="1120" type="qcurve"/>
      <point x="849" y="1129" type="line"/>
      <point x="228" y="1126" type="line"/>
      <point x="185" y="1017" type="line"/>
    </contour>
  </outline>
</glyph>
<glyph name="eight" format="2">
  <advance width="1212"/>
  <unicode hex="0038"/>
  <outline>
    <contour>
      <point x="-34.0" y="367" type="qcurve" smooth="yes"/>
      <point x="-8.0" y="538"/>
      <point x="270.0" y="722"/>
      <point x="559.0" y="817" type="qcurve"/>
      <point x="626.0" y="773" type="line"/>
      <point x="465.0" y="705"/>
      <point x="278" y="470"/>
      <point x="256.0" y="331" type="qcurve" smooth="yes"/>
      <point x="235.0" y="200"/>
      <point x="360" y="43"/>
      <point x="471" y="43.0" type="qcurve" smooth="yes"/>
      <point x="568" y="43.0"/>
      <point x="702" y="149"/>
      <point x="731" y="267" type="qcurve" smooth="yes"/>
      <point x="760" y="384"/>
      <point x="644" y="583.0"/>
      <point x="485.0" y="694" type="qcurve" smooth="yes"/>
      <point x="324" y="807"/>
      <point x="215" y="1053"/>
      <point x="252" y="1200" type="qcurve" smooth="yes"/>
      <point x="290" y="1350"/>
      <point x="556" y="1518"/>
      <point x="777" y="1518.0" type="qcurve" smooth="yes"/>
      <point x="1003" y="1518"/>
      <point x="1214.0" y="1341"/>
      <point x="1196.0" y="1208" type="qcurve" smooth="yes"/>
      <point x="1178" y="1077"/>
      <point x="946.0" y="905"/>
      <point x="688.0" y="810" type="qcurve"/>
      <point x="650.0" y="844" type="line"/>
      <point x="770.0" y="925"/>
      <point x="859" y="1079"/>
      <point x="883" y="1202" type="qcurve" smooth="yes"/>
      <point x="906" y="1320"/>
      <point x="861" y="1448"/>
      <point x="777" y="1448.0" type="qcurve" smooth="yes"/>
      <point x="705" y="1448"/>
      <point x="617" y="1370"/>
      <point x="600" y="1284" type="qcurve" smooth="yes"/>
      <point x="578" y="1175"/>
      <point x="744" y="981"/>
      <point x="875" y="884" type="qcurve" smooth="yes"/>
      <point x="1019.0" y="778.0"/>
      <point x="1177.0" y="556.0"/>
      <point x="1143" y="385" type="qcurve" smooth="yes"/>
      <point x="1106" y="198"/>
      <point x="781" y="-21"/>
      <point x="460" y="-21" type="qcurve" smooth="yes"/>
      <point x="183" y="-21"/>
      <point x="-58" y="210"/>
    </contour>
  </outline>
</glyph>
<glyph name="nine" format="2">
  <advance width="1282"/>
  <unicode hex="0039"/>
  <outline>
    <contour>
      <point x="39" y="-54" type="qcurve"/>
      <point x="20" y="36" type="line"/>
      <point x="337" y="112"/>
      <point x="791" y="627"/>
      <point x="838" y="999" type="qcurve" smooth="yes"/>
      <point x="874" y="1287"/>
      <point x="822" y="1441"/>
      <point x="739" y="1447" type="qcurve" smooth="yes"/>
      <point x="655" y="1453"/>
      <point x="531" y="1264"/>
      <point x="500" y="1072" type="qcurve" smooth="yes"/>
      <point x="468" y="876"/>
      <point x="519" y="731"/>
      <point x="603" y="731" type="qcurve" smooth="yes"/>
      <point x="632" y="731"/>
      <point x="680" y="745"/>
      <point x="706" y="758" type="qcurve"/>
      <point x="720" y="698" type="line"/>
      <point x="670" y="668"/>
      <point x="509" y="611"/>
      <point x="392" y="611" type="qcurve" smooth="yes"/>
      <point x="236" y="611"/>
      <point x="31" y="832"/>
      <point x="71" y="1030" type="qcurve" smooth="yes"/>
      <point x="116" y="1251"/>
      <point x="463" y="1518"/>
      <point x="748" y="1518" type="qcurve" smooth="yes"/>
      <point x="988.0" y="1518.0"/>
      <point x="1297" y="1267"/>
      <point x="1283" y="977" type="qcurve" smooth="yes"/>
      <point x="1265" y="623"/>
      <point x="506" y="41"/>
    </contour>
  </outline>
</glyph>
<glyph name="colon" format="2">
  <advance width="619"/>
  <unicode hex="003A"/>
  <outline>
    <contour>
      <point x="-11.0" y="179.0" type="qcurve" smooth="yes"/>
      <point x="-11.0" y="261.0"/>
      <point x="108.0" y="380.0"/>
      <point x="201.0" y="380.0" type="qcurve" smooth="yes"/>
      <point x="293.0" y="380.0"/>
      <point x="414.0" y="261.0"/>
      <point x="414.0" y="179.0" type="qcurve" smooth="yes"/>
      <point x="414.0" y="98.0"/>
      <point x="293.0" y="-22.0"/>
      <point x="201.0" y="-22.0" type="qcurve" smooth="yes"/>
      <point x="108.0" y="-22.0"/>
      <point x="-11.0" y="98.0"/>
    </contour>
    <contour>
      <point x="98.0" y="753.0" type="qcurve" smooth="yes"/>
      <point x="98.0" y="835.0"/>
      <point x="217.0" y="954.0"/>
      <point x="310.0" y="954.0" type="qcurve" smooth="yes"/>
      <point x="402.0" y="954.0"/>
      <point x="523.0" y="835.0"/>
      <point x="523.0" y="753.0" type="qcurve" smooth="yes"/>
      <point x="523.0" y="672.0"/>
      <point x="402.0" y="552.0"/>
      <point x="310.0" y="552.0" type="qcurve" smooth="yes"/>
      <point x="217.0" y="552.0"/>
      <point x="98.0" y="672.0"/>
    </contour>
  </outline>
</glyph>
<glyph name="semicolon" format="2">
  <advance width="619"/>
  <unicode hex="003B"/>
  <outline>
    <contour>
      <point x="98.0" y="753.0" type="qcurve" smooth="yes"/>
      <point x="98.0" y="835.0"/>
      <point x="217.0" y="954.0"/>
      <point x="310.0" y="954.0" type="qcurve" smooth="yes"/>
      <point x="402.0" y="954.0"/>
      <point x="523.0" y="835.0"/>
      <point x="523.0" y="753.0" type="qcurve" smooth="yes"/>
      <point x="523.0" y="672.0"/>
      <point x="402.0" y="552.0"/>
      <point x="310.0" y="552.0" type="qcurve" smooth="yes"/>
      <point x="217.0" y="552.0"/>
      <point x="98.0" y="672.0"/>
    </contour>
    <contour>
      <point x="9.0" y="-274.0" type="line"/>
      <point x="97.0" y="-201.0"/>
      <point x="219.0" y="-67.0"/>
      <point x="250.0" y="-8.0" type="qcurve"/>
      <point x="133.0" y="-10.0"/>
      <point x="4.0" y="98.0"/>
      <point x="4.0" y="192.0" type="qcurve" smooth="yes"/>
      <point x="4.0" y="270.0"/>
      <point x="121.0" y="389.0"/>
      <point x="210.0" y="389.0" type="qcurve" smooth="yes"/>
      <point x="302.0" y="389.0"/>
      <point x="428.0" y="279.0"/>
      <point x="428.0" y="153.0" type="qcurve" smooth="yes"/>
      <point x="428.0" y="12.0"/>
      <point x="222.0" y="-231.0"/>
      <point x="43.0" y="-323.0" type="qcurve"/>
    </contour>
  </outline>
</glyph>
<glyph name="less" format="2">
  <advance width="938"/>
  <unicode hex="003C"/>
  <outline>
    <contour>
      <point x="85.0" y="586.0" type="qcurve"/>
      <point x="47.0" y="583.0"/>
      <point x="664.0" y="1000.0"/>
      <point x="745.0" y="1050.0" type="qcurve" smooth="yes"/>
      <point x="787.0" y="1086.0"/>
      <point x="880.0" y="928.0"/>
      <point x="848.0" y="889.0" type="qcurve" smooth="yes"/>
      <point x="752.0" y="805.0"/>
      <point x="467.0" y="606.0"/>
      <point x="467.0" y="594.0" type="qcurve"/>
      <point x="470.0" y="579.0"/>
      <point x="769.0" y="332.0"/>
      <point x="835.0" y="267.0" type="qcurve"/>
      <point x="850.0" y="232.0"/>
      <point x="740.0" y="108.0"/>
      <point x="727.0" y="128.0" type="qcurve" smooth="yes"/>
      <point x="627.0" y="188.0"/>
      <point x="62.0" y="584.0"/>
    </contour>
  </outline>
</glyph>
<glyph name="greater" format="2">
  <advance width="938"/>
  <unicode hex="003E"/>
  <outline>
    <contour>
      <point x="835.0" y="603.0" type="qcurve"/>
      <point x="853.0" y="599.0"/>
      <point x="269.04477611940297" y="201.1940298507463"/>
      <point x="176.0" y="143.0" type="qcurve" smooth="yes"/>
      <point x="134.0" y="108.0"/>
      <point x="40.0" y="264.0"/>
      <point x="73.0" y="303.0" type="qcurve" smooth="yes"/>
      <point x="168.0" y="387.0"/>
      <point x="453.0" y="587.0"/>
      <point x="454.0" y="599.0" type="qcurve"/>
      <point x="449.0" y="614.0"/>
      <point x="152.0" y="861.0"/>
      <point x="86.0" y="926.0" type="qcurve"/>
      <point x="70.0" y="961.0"/>
      <point x="181.0" y="1086.0"/>
      <point x="194.0" y="1065.0" type="qcurve" smooth="yes"/>
      <point x="297.0" y="1001.0"/>
      <point x="871.0" y="599.0"/>
    </contour>
  </outline>
</glyph>
<glyph name="question" format="2">
  <advance width="1113"/>
  <unicode hex="003F"/>
  <outline>
    <contour>
      <point x="181" y="1217" type="qcurve" smooth="yes"/>
      <point x="204" y="1359"/>
      <point x="455" y="1521"/>
      <point x="661" y="1521.0" type="qcurve" smooth="yes"/>
      <point x="892" y="1521.0"/>
      <point x="1125" y="1299"/>
      <point x="1115" y="1147" type="qcurve" smooth="yes"/>
      <point x="1107" y="1011"/>
      <point x="944" y="819"/>
      <point x="808" y="768" type="qcurve" smooth="yes"/>
      <point x="631" y="701"/>
      <point x="406" y="605"/>
      <point x="385" y="523" type="qcurve" smooth="yes"/>
      <point x="372" y="466" type="line"/>
      <point x="285" y="476" type="line"/>
      <point x="290" y="560" type="line" smooth="yes"/>
      <point x="297" y="670"/>
      <point x="386" y="857"/>
      <point x="538" y="938" type="qcurve" smooth="yes"/>
      <point x="639" y="992"/>
      <point x="718" y="1108"/>
      <point x="734" y="1207" type="qcurve" smooth="yes"/>
      <point x="752" y="1313"/>
      <point x="660" y="1422"/>
      <point x="573" y="1421" type="qcurve" smooth="yes"/>
      <point x="504" y="1420"/>
      <point x="430" y="1367"/>
      <point x="423" y="1319" type="qcurve" smooth="yes"/>
      <point x="415" y="1267"/>
      <point x="503" y="1173"/>
      <point x="505" y="1114" type="qcurve" smooth="yes"/>
      <point x="507" y="1059"/>
      <point x="416" y="968"/>
      <point x="342" y="968" type="qcurve" smooth="yes"/>
      <point x="269" y="968"/>
      <point x="163" y="1109"/>
    </contour>
    <contour>
      <point x="92" y="175" type="qcurve" smooth="yes"/>
      <point x="96" y="264"/>
      <point x="203" y="372"/>
      <point x="293" y="372" type="qcurve" smooth="yes"/>
      <point x="377" y="372"/>
      <point x="477" y="260"/>
      <point x="470" y="175" type="qcurve" smooth="yes"/>
      <point x="466" y="86"/>
      <point x="358" y="-20"/>
      <point x="268" y="-20" type="qcurve" smooth="yes"/>
      <point x="184" y="-20"/>
      <point x="86" y="90"/>
    </contour>
  </outline>
</glyph>
<glyph name="at" format="2">
  <advance width="1664"/>
  <unicode hex="0040"/>
  <outline>
    <contour>
      <point x="382" y="706" type="qcurve" smooth="yes"/>
      <point x="436" y="924"/>
      <point x="721" y="1186"/>
      <point x="862" y="1187" type="qcurve" smooth="yes"/>
      <point x="935" y="1188"/>
      <point x="1013" y="1147"/>
      <point x="1030" y="1119" type="qcurve"/>
      <point x="1120" y="1198" type="line"/>
      <point x="1173" y="1198" type="line"/>
      <point x="1332" y="1084" type="line"/>
      <point x="1214" y="610" type="line"/>
      <point x="1176" y="415" type="line" smooth="yes"/>
      <point x="1169" y="381"/>
      <point x="1201" y="339"/>
      <point x="1243" y="339" type="qcurve" smooth="yes"/>
      <point x="1327" y="339"/>
      <point x="1516" y="612"/>
      <point x="1550" y="833" type="qcurve" smooth="yes"/>
      <point x="1588" y="1082"/>
      <point x="1274" y="1460"/>
      <point x="980" y="1457" type="qcurve" smooth="yes"/>
      <point x="726" y="1454"/>
      <point x="257" y="1095"/>
      <point x="177" y="729" type="qcurve" smooth="yes"/>
      <point x="89" y="324"/>
      <point x="419" y="-39"/>
      <point x="703" y="-39" type="qcurve" smooth="yes"/>
      <point x="849" y="-39"/>
      <point x="1096" y="39"/>
      <point x="1188" y="98" type="qcurve"/>
      <point x="1215" y="46" type="line"/>
      <point x="1112" y="-16"/>
      <point x="798" y="-129"/>
      <point x="702" y="-129" type="qcurve" smooth="yes"/>
      <point x="358" y="-129"/>
      <point x="-6" y="298"/>
      <point x="83" y="708" type="qcurve" smooth="yes"/>
      <point x="173" y="1124"/>
      <point x="702" y="1521"/>
      <point x="986" y="1521" type="qcurve" smooth="yes"/>
      <point x="1299" y="1521"/>
      <point x="1662" y="1115"/>
      <point x="1622" y="835" type="qcurve" smooth="yes"/>
      <point x="1585" y="579"/>
      <point x="1323" y="244"/>
      <point x="1089" y="244" type="qcurve" smooth="yes"/>
      <point x="978" y="244"/>
      <point x="869" y="314"/>
      <point x="870" y="399" type="qcurve"/>
      <point x="839" y="331"/>
      <point x="690" y="245"/>
      <point x="602" y="245" type="qcurve" smooth="yes"/>
      <point x="473" y="245"/>
      <point x="328" y="488"/>
    </contour>
    <contour>
      <point x="746" y="770" type="qcurve" smooth="yes"/>
      <point x="667" y="473"/>
      <point x="673" y="343"/>
      <point x="714" y="343" type="qcurve" smooth="yes"/>
      <point x="762" y="344"/>
      <point x="862" y="507"/>
      <point x="894" y="647" type="qcurve" smooth="yes"/>
      <point x="996" y="1051" type="line"/>
      <point x="989" y="1081"/>
      <point x="953" y="1116"/>
      <point x="923" y="1116" type="qcurve" smooth="yes"/>
      <point x="870" y="1116"/>
      <point x="789" y="930"/>
    </contour>
  </outline>
</glyph>
<glyph name="A" format="2">
  <advance width="1386"/>
  <unicode hex="0041"/>
  <outline>
    <contour>
      <point x="-212" y="0" type="line"/>
      <point x="-201" y="54" type="line"/>
      <point x="-45" y="76" type="line"/>
      <point x="201" y="573" type="line"/>
      <point x="659" y="1500" type="line"/>
      <point x="1060" y="1500" type="line"/>
      <point x="1146" y="647" type="line"/>
      <point x="1205" y="70" type="line"/>
      <point x="1302" y="55" type="line"/>
      <point x="1302" y="0" type="line"/>
      <point x="592" y="0" type="line"/>
      <point x="601" y="55" type="line"/>
      <point x="722" y="73" type="line"/>
      <point x="671" y="626" type="line"/>
      <point x="613" y="1245" type="line"/>
      <point x="597" y="1245" type="line"/>
      <point x="257" y="550" type="line"/>
      <point x="23" y="72" type="line"/>
      <point x="189" y="54" type="line"/>
      <point x="187" y="0" type="line"/>
    </contour>
    <contour>
      <point x="218.0" y="532.0" type="line"/>
      <point x="248.0" y="586.0" type="line"/>
      <point x="476.0" y="579.0" type="line"/>
      <point x="469.0" y="532.0" type="line"/>
    </contour>
    <contour>
      <point x="477.0" y="579.0" type="line"/>
      <point x="939.0" y="587.0" type="line"/>
      <point x="943.0" y="532.0" type="line"/>
      <point x="469.0" y="532.0" type="line"/>
    </contour>
  </outline>
</glyph>
<glyph name="D" format="2">
  <advance width="1592"/>
  <unicode hex="0044"/>
  <outline>
    <contour>
      <point x="-112" y="0" type="line"/>
      <point x="-103" y="55" type="line"/>
      <point x="-2" y="71" type="line"/>
      <point x="161" y="811" type="line"/>
      <point x="293" y="1432" type="line"/>
      <point x="173" y="1442" type="line"/>
      <point x="182" y="1500" type="line"/>
      <point x="957" y="1500" type="line" smooth="yes"/>
      <point x="1258" y="1500"/>
      <point x="1583" y="1116"/>
      <point x="1510" y="738" type="qcurve" smooth="yes"/>
      <point x="1440" y="373"/>
      <point x="975" y="0"/>
      <point x="660" y="0" type="qcurve" smooth="yes"/>
    </contour>
    <contour>
      <point x="501" y="67" type="line"/>
      <point x="520" y="65"/>
      <point x="565" y="62"/>
      <point x="623" y="62" type="qcurve" smooth="yes"/>
      <point x="774" y="62"/>
      <point x="892" y="398"/>
      <point x="966" y="746" type="qcurve" smooth="yes"/>
      <point x="1041" y="1095"/>
      <point x="1015" y="1445"/>
      <point x="870" y="1445" type="qcurve" smooth="yes"/>
      <point x="849" y="1445"/>
      <point x="816" y="1444"/>
      <point x="793" y="1440" type="qcurve"/>
      <point x="643" y="759" type="line"/>
    </contour>
  </outline>
</glyph>
<glyph name="E" format="2">
  <advance width="1269"/>
  <unicode hex="0045"/>
  <outline>
    <contour>
      <point x="-112" y="0" type="line"/>
      <point x="-103" y="55" type="line"/>
      <point x="-2" y="66" type="line"/>
      <point x="158" y="796" type="line"/>
      <point x="290" y="1432" type="line"/>
      <point x="174" y="1445" type="line"/>
      <point x="182" y="1500" type="line"/>
      <point x="1342" y="1500" type="line"/>
      <point x="1259" y="1137" type="line"/>
      <point x="1179" y="1137" type="line"/>
      <point x="1161" y="1440" type="line"/>
      <point x="828" y="1440" type="line"/>
      <point x="796" y="1418" type="line"/>
      <point x="653" y="773" type="line"/>
      <point x="511" y="96" type="line"/>
      <point x="551" y="58" type="line"/>
      <point x="916" y="58" type="line"/>
      <point x="1132" y="393" type="line"/>
      <point x="1204" y="393" type="line"/>
      <point x="1063" y="0" type="line"/>
    </contour>
    <contour>
      <point x="390" y="752" type="line"/>
      <point x="403" y="801" type="line"/>
      <point x="968" y="815" type="line"/>
      <point x="1062" y="986" type="line"/>
      <point x="1118" y="986" type="line"/>
      <point x="1041" y="557" type="line"/>
      <point x="981" y="557" type="line"/>
      <point x="951" y="756" type="line"/>
    </contour>
  </outline>
</glyph>
<glyph name="H" format="2">
  <advance width="1652"/>
  <unicode hex="0048"/>
  <outline>
    <contour>
      <point x="-112" y="0" type="line"/>
      <point x="-103" y="55" type="line"/>
      <point x="-3" y="70" type="line"/>
      <point x="157" y="794" type="line"/>
      <point x="291" y="1432" type="line"/>
      <point x="172" y="1443" type="line"/>
      <point x="182" y="1500" type="line"/>
      <point x="928" y="1500" type="line"/>
      <point x="918" y="1443" type="line"/>
      <point x="797" y="1432" type="line"/>
      <point x="652" y="768" type="line"/>
      <point x="503" y="70" type="line"/>
      <point x="623" y="55" type="line"/>
      <point x="614" y="0" type="line"/>
    </contour>
    <contour>
      <point x="401" y="727" type="line"/>
      <point x="408" y="791" type="line"/>
      <point x="822" y="789" type="line"/>
      <point x="1197" y="791" type="line"/>
      <point x="1190" y="727" type="line"/>
      <point x="816" y="727" type="line"/>
    </contour>
    <contour>
      <point x="737" y="0" type="line"/>
      <point x="746" y="55" type="line"/>
      <point x="853" y="70" type="line"/>
      <point x="1009" y="764" type="line"/>
      <point x="1147" y="1432" type="line"/>
      <point x="1041" y="1443" type="line"/>
      <point x="1051" y="1500" type="line"/>
      <point x="1782" y="1500" type="line"/>
      <point x="1772" y="1443" type="line"/>
      <point x="1651" y="1432" type="line"/>
      <point x="1504" y="748" type="line"/>
      <point x="1357" y="70" type="line"/>
      <point x="1477" y="55" type="line"/>
      <point x="1468" y="0" type="line"/>
    </contour>
  </outline>
</glyph>
<glyph name="M" format="2">
  <advance width="1867"/>
  <unicode hex="004D"/>
  <outline>
    <contour>
      <point x="-113" y="0" type="line"/>
      <point x="-103" y="55" type="line"/>
      <point x="12" y="95" type="line"/>
      <point x="152" y="759" type="line"/>
      <point x="288" y="1415" type="line"/>
      <point x="170" y="1442" type="line"/>
      <point x="184" y="1500" type="line"/>
      <point x="798" y="1500" type="line"/>
      <point x="818" y="845" type="line"/>
      <point x="834" y="336" type="line"/>
      <point x="1068" y="868" type="line"/>
      <point x="1345" y="1500" type="line"/>
      <point x="1996" y="1500" type="line"/>
      <point x="1986" y="1442" type="line"/>
      <point x="1866" y="1430" type="line"/>
      <point x="1718" y="747" type="line"/>
      <point x="1572" y="72" type="line"/>
      <point x="1693" y="55" type="line"/>
      <point x="1682" y="0" type="line"/>
      <point x="963" y="0" type="line"/>
      <point x="969" y="55" type="line"/>
      <point x="1078" y="70" type="line"/>
      <point x="1226" y="757" type="line"/>
      <point x="1359" y="1373" type="line"/>
      <point x="1120" y="833" type="line"/>
      <point x="752" y="0" type="line"/>
      <point x="395" y="0" type="line"/>
      <point x="370" y="800" type="line"/>
      <point x="351" y="1397" type="line"/>
      <point x="219" y="753" type="line"/>
      <point x="81" y="95" type="line"/>
      <point x="208" y="55" type="line"/>
      <point x="205" y="0" type="line"/>
    </contour>
  </outline>
</glyph>
<glyph name="Q" format="2">
  <advance width="1602"/>
  <unicode hex="0051"/>
  <outline>
    <contour>
      <point x="64" y="809" type="qcurve" smooth="yes"/>
      <point x="160" y="1189"/>
      <point x="710" y="1562"/>
      <point x="1005" y="1528" type="qcurve" smooth="yes"/>
      <point x="1303" y="1494"/>
      <point x="1616" y="1055"/>
      <point x="1532" y="689" type="qcurve" smooth="yes"/>
      <point x="1448" y="323"/>
      <point x="880" y="-68"/>
      <point x="557" y="-13" type="qcurve" smooth="yes"/>
      <point x="270" y="36"/>
      <point x="-21" y="473"/>
    </contour>
    <contour>
      <point x="600" y="823" type="qcurve" smooth="yes"/>
      <point x="496" y="378"/>
      <point x="490" y="53"/>
      <point x="604.0" y="28.0" type="qcurve" smooth="yes"/>
      <point x="730" y="0"/>
      <point x="899.0" y="248.0"/>
      <point x="1008" y="726" type="qcurve" smooth="yes"/>
      <point x="1112" y="1180"/>
      <point x="1107" y="1457"/>
      <point x="982.0" y="1475.0" type="qcurve" smooth="yes"/>
      <point x="857" y="1493"/>
      <point x="708" y="1286"/>
    </contour>
    <contour>
      <point x="-123.0" y="-284.0" type="line"/>
      <point x="-38.0" y="-158.0"/>
      <point x="185" y="-48"/>
      <point x="310.0" y="-49.0" type="qcurve"/>
      <point x="404" y="-16"/>
      <point x="603" y="144"/>
      <point x="646.0" y="216.0" type="qcurve" smooth="yes"/>
      <point x="649" y="221"/>
      <point x="653.0" y="227.0"/>
      <point x="656.0" y="227.0" type="qcurve"/>
      <point x="659.0" y="227.0"/>
      <point x="690.0" y="210.0"/>
      <point x="693.0" y="208.0" type="qcurve"/>
      <point x="695.0" y="206.0"/>
      <point x="693" y="200"/>
      <point x="691.0" y="196.0" type="qcurve" smooth="yes"/>
      <point x="656" y="125"/>
      <point x="490.0" y="-33.0"/>
      <point x="406.0" y="-59.0" type="qcurve"/>
      <point x="924.0" y="-182.0" type="line" smooth="yes"/>
      <point x="1129" y="-231"/>
      <point x="1231.0" y="-213.0"/>
      <point x="1297.0" y="-132.0" type="qcurve"/>
      <point x="1340.0" y="-163.0" type="line"/>
      <point x="1285.0" y="-257.0"/>
      <point x="1075.0" y="-450.0"/>
      <point x="953.0" y="-469.0" type="qcurve"/>
      <point x="161.0" y="-274.0" type="line" smooth="yes"/>
      <point x="83" y="-255"/>
      <point x="-12.0" y="-244.0"/>
      <point x="-85.0" y="-319.0" type="qcurve"/>
    </contour>
  </outline>
</glyph>
<glyph name="R" format="2">
  <advance width="1458"/>
  <unicode hex="0052"/>
  <outline>
    <contour>
      <point x="-102" y="0" type="line"/>
      <point x="-93" y="55" type="line"/>
      <point x="-2" y="64" type="line"/>
      <point x="165" y="806" type="line"/>
      <point x="293" y="1432" type="line"/>
      <point x="173" y="1442" type="line"/>
      <point x="182" y="1500" type="line"/>
      <point x="1047" y="1500" type="line" smooth="yes"/>
      <point x="1281" y="1500"/>
      <point x="1484" y="1272"/>
      <point x="1452" y="1094" type="qcurve" smooth="yes"/>
      <point x="1418" y="906"/>
      <point x="1175" y="713"/>
      <point x="973" y="713" type="qcurve" smooth="yes"/>
      <point x="871" y="713"/>
      <point x="643" y="720"/>
      <point x="597" y="723" type="qcurve"/>
      <point x="604" y="773" type="line"/>
      <point x="691" y="770" type="line"/>
      <point x="714" y="770" type="line" smooth="yes"/>
      <point x="821" y="770"/>
      <point x="954" y="902"/>
      <point x="998" y="1164" type="qcurve" smooth="yes"/>
      <point x="1026" y="1332"/>
      <point x="961" y="1442"/>
      <point x="856" y="1442" type="qcurve" smooth="yes"/>
      <point x="805" y="1442" type="line"/>
      <point x="788" y="1428" type="line"/>
      <point x="643" y="731" type="line"/>
      <point x="500" y="72" type="line"/>
      <point x="621" y="55" type="line"/>
      <point x="610" y="0" type="line"/>
    </contour>
    <contour>
      <point x="686" y="730" type="line"/>
      <point x="1117" y="764" type="line"/>
      <point x="1135" y="658" type="line" smooth="yes"/>
      <point x="1202" y="263"/>
      <point x="1328" y="72"/>
      <point x="1472" y="55" type="qcurve"/>
      <point x="1478" y="0" type="line"/>
      <point x="1199" y="0" type="line" smooth="yes"/>
      <point x="974" y="0"/>
      <point x="768" y="200"/>
      <point x="703" y="558" type="qcurve" smooth="yes"/>
    </contour>
  </outline>
</glyph>
<glyph name="Z" format="2">
  <advance width="1341"/>
  <unicode hex="005A"/>
  <outline>
    <contour>
      <point x="-76" y="0" type="line"/>
      <point x="-84" y="74" type="line"/>
      <point x="440" y="828" type="line"/>
      <point x="860" y="1433" type="line"/>
      <point x="858" y="1440" type="line"/>
      <point x="398" y="1440" type="line"/>
      <point x="222" y="1107" type="line"/>
      <point x="148" y="1107" type="line"/>
      <point x="230" y="1500" type="line"/>
      <point x="1402" y="1500" type="line"/>
      <point x="1383" y="1420" type="line"/>
      <point x="872" y="691" type="line"/>
      <point x="443" y="78" type="line"/>
      <point x="440" y="68" type="line"/>
      <point x="954" y="68" type="line"/>
      <point x="1147" y="441" type="line"/>
      <point x="1240" y="441" type="line"/>
      <point x="1123" y="0" type="line"/>
    </contour>
  </outline>
</glyph>
<glyph name="backslash" format="2">
  <advance width="600"/>
  <unicode hex="005C"/>
  <outline>
    <contour>
      <point x="181.0" y="1558.0" type="line"/>
      <point x="402.0" y="1566.0" type="line"/>
      <point x="448.0" y="-148.0" type="line"/>
      <point x="229.0" y="-161.0" type="line"/>
    </contour>
  </outline>
</glyph>
<glyph name="asciicircum" format="2">
  <advance width="1069"/>
  <unicode hex="005E"/>
  <outline>
    <contour>
      <point x="192.0" y="1010.0" type="line"/>
      <point x="316.0" y="1146"/>
      <point x="657" y="1523"/>
      <point x="737.0" y="1523.0" type="qcurve" smooth="yes"/>
      <point x="799" y="1523.0"/>
      <point x="984.0" y="1115"/>
      <point x="1038.0" y="1011.0" type="qcurve"/>
      <point x="979.0" y="959.0" type="line"/>
      <point x="892.0" y="1036.0"/>
      <point x="671.0" y="1200.0"/>
      <point x="671.0" y="1200.0" type="qcurve"/>
      <point x="671.0" y="1200.0"/>
      <point x="359.0" y="1016.0"/>
      <point x="243.0" y="958.0" type="qcurve"/>
    </contour>
  </outline>
</glyph>
<glyph name="underscore" format="2">
  <advance width="1183"/>
  <unicode hex="005F"/>
  <outline>
    <contour>
      <point x="-378.0" y="-606.0" type="line"/>
      <point x="-347.0" y="-422.0" type="line"/>
      <point x="294.0" y="-431.0" type="line"/>
      <point x="1011.0" y="-422.0" type="line"/>
      <point x="980.0" y="-606.0" type="line"/>
      <point x="266.0" y="-606.0" type="line"/>
    </contour>
  </outline>
</glyph>
<glyph name="grave" format="2">
  <advance width="896"/>
  <unicode hex="0060"/>
  <outline>
    <contour>
      <point x="262.0" y="1237.0" type="qcurve" smooth="yes"/>
      <point x="551.0" y="1067.0" type="line"/>
      <point x="590.0" y="1110.0" type="line"/>
      <point x="425.0" y="1338.0" type="line" smooth="yes"/>
      <point x="394.0" y="1379.0"/>
      <point x="311.0" y="1439.0"/>
      <point x="280.0" y="1439.0" type="qcurve" smooth="yes"/>
      <point x="250.0" y="1439.0"/>
      <point x="186.0" y="1384.0"/>
      <point x="186.0" y="1350.0" type="qcurve" smooth="yes"/>
      <point x="186.0" y="1326.0"/>
      <point x="223.0" y="1257.0"/>
    </contour>
  </outline>
</glyph>
<glyph name="a" format="2">
  <advance width="1359"/>
  <unicode hex="0061"/>
  <outline>
    <contour>
      <point x="-36.0" y="268.0" type="qcurve" smooth="yes"/>
      <point x="-36.0" y="575.0"/>
      <point x="400.0" y="987.0"/>
      <point x="729.0" y="987.0" type="qcurve" smooth="yes"/>
      <point x="801.0" y="987.0"/>
      <point x="908.0" y="952.0"/>
      <point x="932.0" y="913.0" type="qcurve"/>
      <point x="1104.0" y="976.0" type="line"/>
      <point x="1216.0" y="969.0" type="line"/>
      <point x="1271.0" y="885.0" type="line"/>
      <point x="1156.0" y="428.0" type="line"/>
      <point x="1111.0" y="211.0" type="line"/>
      <point x="1099.0" y="147.0"/>
      <point x="1126.0" y="41.0"/>
      <point x="1172.0" y="-6.0" type="qcurve"/>
      <point x="913.0" y="-18.0" type="line"/>
      <point x="864.0" y="-22.0"/>
      <point x="747.0" y="121.0"/>
      <point x="718.0" y="201.0" type="qcurve"/>
      <point x="646.0" y="102.0"/>
      <point x="448.0" y="-5.0"/>
      <point x="286.0" y="-5.0" type="qcurve" smooth="yes"/>
      <point x="130.0" y="-5.0"/>
      <point x="-36.0" y="143.0"/>
    </contour>
    <contour>
      <point x="408.0" y="295.0" type="qcurve" smooth="yes"/>
      <point x="408.0" y="203.0"/>
      <point x="464.0" y="127.0"/>
      <point x="516.0" y="127.0" type="qcurve" smooth="yes"/>
      <point x="572.0" y="127.0"/>
      <point x="702.0" y="288.0"/>
      <point x="749.0" y="466.0" type="qcurve" smooth="yes"/>
      <point x="845.0" y="861.0" type="line"/>
      <point x="835.0" y="882.0"/>
      <point x="806.0" y="934.0"/>
      <point x="752.0" y="934.0" type="qcurve" smooth="yes"/>
      <point x="645.0" y="934.0"/>
      <point x="408.0" y="478.0"/>
    </contour>
  </outline>
</glyph>
<glyph name="b" format="2">
  <advance width="1320"/>
  <unicode hex="0062"/>
  <outline>
    <contour>
      <point x="16" y="357" type="qcurve" smooth="yes"/>
      <point x="69" y="594" type="line"/>
      <point x="226" y="1406" type="line"/>
      <point x="107" y="1410" type="line"/>
      <point x="126" y="1488" type="line"/>
      <point x="655" y="1528" type="line"/>
      <point x="685" y="1465" type="line"/>
      <point x="495" y="556" type="line"/>
      <point x="417" y="136" type="line" smooth="yes"/>
      <point x="406" y="79"/>
      <point x="440" y="24"/>
      <point x="495" y="24" type="qcurve" smooth="yes"/>
      <point x="600" y="24"/>
      <point x="773" y="444"/>
      <point x="773" y="658" type="qcurve" smooth="yes"/>
      <point x="773" y="723"/>
      <point x="739" y="829"/>
      <point x="691" y="829" type="qcurve" smooth="yes"/>
      <point x="646" y="829"/>
      <point x="533" y="741"/>
      <point x="461" y="655" type="qcurve"/>
      <point x="440" y="725" type="line"/>
      <point x="541" y="845"/>
      <point x="810" y="1002"/>
      <point x="955" y="1002" type="qcurve" smooth="yes"/>
      <point x="1093" y="1002"/>
      <point x="1247" y="809"/>
      <point x="1243" y="645" type="qcurve" smooth="yes"/>
      <point x="1237" y="393"/>
      <point x="867" y="-29"/>
      <point x="505" y="-29" type="qcurve" smooth="yes"/>
      <point x="186" y="-29"/>
      <point x="-24" y="168"/>
    </contour>
  </outline>
</glyph>
<glyph name="c" format="2">
  <advance width="1092"/>
  <unicode hex="0063"/>
  <outline>
    <contour>
      <point x="-14" y="484" type="qcurve" smooth="yes"/>
      <point x="26" y="712"/>
      <point x="415" y="997"/>
      <point x="720" y="997" type="qcurve" smooth="yes"/>
      <point x="919" y="997"/>
      <point x="1088" y="864"/>
      <point x="1088" y="791" type="qcurve" smooth="yes"/>
      <point x="1088" y="709"/>
      <point x="1007" y="603"/>
      <point x="930" y="575" type="qcurve"/>
      <point x="866" y="577" type="line"/>
      <point x="864" y="862" type="line" smooth="yes"/>
      <point x="864" y="897"/>
      <point x="816" y="946"/>
      <point x="759" y="946" type="qcurve" smooth="yes"/>
      <point x="654" y="946"/>
      <point x="538" y="709"/>
      <point x="486" y="515" type="qcurve" smooth="yes"/>
      <point x="429" y="304"/>
      <point x="529" y="111"/>
      <point x="617" y="111" type="qcurve" smooth="yes"/>
      <point x="730" y="111"/>
      <point x="924" y="223"/>
      <point x="984" y="311" type="qcurve"/>
      <point x="1007" y="286" type="line"/>
      <point x="1007" y="258" type="line"/>
      <point x="928" y="133"/>
      <point x="642" y="-23"/>
      <point x="445" y="-23" type="qcurve" smooth="yes"/>
      <point x="197" y="-23"/>
      <point x="-54" y="256"/>
    </contour>
  </outline>
</glyph>
<glyph name="d" format="2">
  <advance width="1400"/>
  <unicode hex="0064"/>
  <outline>
    <contour>
      <point x="-17" y="278" type="qcurve" smooth="yes"/>
      <point x="-17" y="548"/>
      <point x="405" y="978"/>
      <point x="772" y="969" type="qcurve" smooth="yes"/>
      <point x="855" y="967" type="line"/>
      <point x="941" y="1391" type="line"/>
      <point x="780" y="1400" type="line"/>
      <point x="798" y="1481" type="line"/>
      <point x="1354" y="1571" type="line"/>
      <point x="1391" y="1514" type="line"/>
      <point x="1191" y="469" type="line"/>
      <point x="1112" y="129" type="line"/>
      <point x="1305" y="129" type="line"/>
      <point x="1302" y="74" type="line"/>
      <point x="787" y="-18" type="line"/>
      <point x="713" y="22" type="line"/>
      <point x="711" y="212" type="line"/>
      <point x="632" y="107"/>
      <point x="459" y="-19"/>
      <point x="272" y="-19" type="qcurve" smooth="yes"/>
      <point x="131" y="-19"/>
      <point x="-17" y="143"/>
    </contour>
    <contour>
      <point x="426.0" y="281" type="qcurve" smooth="yes"/>
      <point x="426" y="188"/>
      <point x="481" y="120"/>
      <point x="512" y="120" type="qcurve" smooth="yes"/>
      <point x="582" y="120"/>
      <point x="732" y="359"/>
      <point x="759" y="498" type="qcurve" smooth="yes"/>
      <point x="828" y="855" type="line"/>
      <point x="823" y="876"/>
      <point x="794" y="910"/>
      <point x="750" y="910" type="qcurve" smooth="yes"/>
      <point x="627" y="910"/>
      <point x="426.0" y="417"/>
    </contour>
  </outline>
</glyph>
<glyph name="e" format="2">
  <advance width="1191"/>
  <unicode hex="0065"/>
  <outline>
    <contour>
      <point x="-18.0" y="435.0" type="qcurve" smooth="yes"/>
      <point x="4.0" y="671.0"/>
      <point x="382.0" y="995.0"/>
      <point x="700.0" y="995.0" type="qcurve" smooth="yes"/>
      <point x="861.0" y="995.0"/>
      <point x="1068.0" y="866.0"/>
      <point x="1077.0" y="741.0" type="qcurve" smooth="yes"/>
      <point x="1079.0" y="722.0"/>
      <point x="1074.0" y="654.0"/>
      <point x="1061.0" y="626.0" type="qcurve"/>
      <point x="1140.0" y="626.0" type="line"/>
      <point x="1125.0" y="547.0" type="line"/>
      <point x="1083.0" y="543.0"/>
      <point x="887.0" y="541.0"/>
      <point x="817.0" y="543.0" type="qcurve" smooth="yes"/>
      <point x="415.0" y="547.0" type="line"/>
      <point x="424.0" y="615.0" type="line"/>
      <point x="796.0" y="622.0" type="line"/>
      <point x="808.0" y="662.0"/>
      <point x="819.0" y="724.0"/>
      <point x="817.0" y="766.0" type="qcurve" smooth="yes"/>
      <point x="816.0" y="835.0"/>
      <point x="753.0" y="925.0"/>
      <point x="687.0" y="925.0" type="qcurve" smooth="yes"/>
      <point x="632.0" y="925.0"/>
      <point x="505.0" y="713.0"/>
      <point x="463.0" y="508.0" type="qcurve" smooth="yes"/>
      <point x="428.0" y="343.0"/>
      <point x="478.0" y="127.0"/>
      <point x="605.0" y="115.0" type="qcurve" smooth="yes"/>
      <point x="703.0" y="105.0"/>
      <point x="925.0" y="226.0"/>
      <point x="994.0" y="335.0" type="qcurve"/>
      <point x="1034.0" y="288.0" type="line"/>
      <point x="1040.0" y="270.0" type="line"/>
      <point x="967.0" y="155.0"/>
      <point x="690.0" y="-29.0"/>
      <point x="488.0" y="-20.0" type="qcurve" smooth="yes"/>
      <point x="176.0" y="-10.0"/>
      <point x="-34.0" y="253.0"/>
    </contour>
  </outline>
</glyph>
<glyph name="f" format="2">
  <advance width="757"/>
  <unicode hex="0066"/>
  <outline>
    <contour>
      <point x="-519" y="-419" type="line"/>
      <point x="-510" y="-375" type="line"/>
      <point x="-379" y="-375" type="line" smooth="yes"/>
      <point x="-178" y="-375"/>
      <point x="-6" y="-68"/>
      <point x="58" y="347" type="qcurve" smooth="yes"/>
      <point x="137" y="852" type="line"/>
      <point x="139" y="857" type="line"/>
      <point x="176" y="1067" type="line" smooth="yes"/>
      <point x="218" y="1295"/>
      <point x="544" y="1550"/>
      <point x="786" y="1550" type="qcurve" smooth="yes"/>
      <point x="956" y="1550"/>
      <point x="1117" y="1468"/>
      <point x="1114" y="1366" type="qcurve" smooth="yes"/>
      <point x="1112" y="1282"/>
      <point x="988" y="1201"/>
      <point x="905" y="1201" type="qcurve"/>
      <point x="907" y="1229"/>
      <point x="912" y="1316"/>
      <point x="913" y="1359" type="qcurve" smooth="yes"/>
      <point x="915" y="1402"/>
      <point x="891" y="1482"/>
      <point x="839" y="1483" type="qcurve" smooth="yes"/>
      <point x="773" y="1485"/>
      <point x="650" y="1311"/>
      <point x="607" y="1054" type="qcurve" smooth="yes"/>
      <point x="575" y="858" type="line"/>
      <point x="574" y="851" type="line"/>
      <point x="534" y="581" type="line" smooth="yes"/>
      <point x="451" y="24"/>
      <point x="-44" y="-479"/>
      <point x="-321" y="-479" type="qcurve"/>
    </contour>
    <contour>
      <point x="-30" y="824" type="line"/>
      <point x="-25" y="894" type="line"/>
      <point x="153" y="894" type="line"/>
      <point x="794" y="904" type="line"/>
      <point x="783" y="837" type="line"/>
      <point x="520" y="832" type="line"/>
      <point x="148" y="832" type="line"/>
    </contour>
  </outline>
</glyph>
<glyph name="g" format="2">
  <advance width="1399"/>
  <unicode hex="0067"/>
  <outline>
    <contour>
      <point x="-37.0" y="269.0" type="qcurve" smooth="yes"/>
      <point x="-37.0" y="547.0"/>
      <point x="429.0" y="994.0"/>
      <point x="758.0" y="994.0" type="qcurve" smooth="yes"/>
      <point x="819.0" y="994.0"/>
      <point x="942.0" y="951.0"/>
      <point x="969.0" y="910.0" type="qcurve"/>
      <point x="1147.0" y="981.0" type="line"/>
      <point x="1256.0" y="980.0" type="line"/>
      <point x="1311.0" y="851.0" type="line"/>
      <point x="1232.0" y="593.0" type="line" smooth="yes"/>
      <point x="1203.0" y="376.0"/>
      <point x="1143.0" y="117.0"/>
      <point x="1070.0" y="-63.0" type="qcurve" smooth="yes"/>
      <point x="982.0" y="-240.0"/>
      <point x="530.0" y="-489.0"/>
      <point x="210.0" y="-479.0" type="qcurve"/>
      <point x="30.0" y="-414.0" type="line"/>
      <point x="42.0" y="-355.0" type="line"/>
      <point x="223.0" y="-360.0" type="line" smooth="yes"/>
      <point x="444.0" y="-363.0"/>
      <point x="727.0" y="-151.0"/>
      <point x="762.0" y="179.0" type="qcurve" smooth="yes"/>
      <point x="755.0" y="175.0" type="line"/>
      <point x="718.0" y="128.0"/>
      <point x="485.0" y="-30.0"/>
      <point x="293.0" y="-30.0" type="qcurve" smooth="yes"/>
      <point x="118.0" y="-30.0"/>
      <point x="-37.0" y="158.0"/>
    </contour>
    <contour>
      <point x="410.0" y="285.0" type="qcurve" smooth="yes"/>
      <point x="410.0" y="207.0"/>
      <point x="471.0" y="101.0"/>
      <point x="527.0" y="101.0" type="qcurve" smooth="yes"/>
      <point x="582.0" y="101.0"/>
      <point x="760.0" y="290.0"/>
      <point x="796.0" y="446.0" type="qcurve" smooth="yes"/>
      <point x="894.0" y="872.0" type="line"/>
      <point x="879.0" y="904.0"/>
      <point x="847.0" y="946.0"/>
      <point x="786.0" y="946.0" type="qcurve" smooth="yes"/>
      <point x="676.0" y="946.0"/>
      <point x="410.0" y="476.0"/>
    </contour>
  </outline>
</glyph>
<glyph name="h" format="2">
  <advance width="1405"/>
  <unicode hex="0068"/>
  <outline>
    <contour>
      <point x="62.0" y="-23.0" type="line"/>
      <point x="-15.0" y="103.0" type="line"/>
      <point x="98.0" y="599.0" type="line"/>
      <point x="254.0" y="1411.0" type="line"/>
      <point x="115.0" y="1411.0" type="line"/>
      <point x="136.0" y="1488.0" type="line"/>
      <point x="684.0" y="1580.0" type="line"/>
      <point x="718.0" y="1517.0" type="line"/>
      <point x="532.0" y="598.0" type="line"/>
      <point x="436.0" y="151.0" type="line"/>
      <point x="478.0" y="47.0" type="line"/>
    </contour>
    <contour>
      <point x="721.0" y="-11.0" type="line"/>
      <point x="650.0" y="123.0" type="line"/>
      <point x="775.0" y="663.0" type="line" smooth="yes"/>
      <point x="792.0" y="736.0"/>
      <point x="764" y="815"/>
      <point x="734.0" y="815.0" type="qcurve" smooth="yes"/>
      <point x="703" y="815"/>
      <point x="617.0" y="737.0"/>
      <point x="533.0" y="613.0" type="qcurve"/>
      <point x="504.0" y="647.0" type="line"/>
      <point x="606.0" y="806.0"/>
      <point x="852" y="981"/>
      <point x="997" y="981.0" type="qcurve" smooth="yes"/>
      <point x="1149" y="981"/>
      <point x="1263" y="775"/>
      <point x="1232.0" y="639.0" type="qcurve" smooth="yes"/>
      <point x="1117.0" y="132.0" type="line"/>
      <point x="1286.0" y="145.0" type="line"/>
      <point x="1277.0" y="87.0" type="line"/>
    </contour>
  </outline>
</glyph>
<glyph name="i" format="2">
  <advance width="689"/>
  <unicode hex="0069"/>
  <outline>
    <contour>
      <point x="15.0" y="-11.0" type="line"/>
      <point x="-44.0" y="111.0" type="line"/>
      <point x="71.0" y="527.0" type="line"/>
      <point x="119.0" y="821.0" type="line"/>
      <point x="-17.0" y="839.0" type="line"/>
      <point x="-14.0" y="910.0" type="line"/>
      <point x="461.0" y="968.0" type="line"/>
      <point x="588.0" y="954.0" type="line"/>
      <point x="593.0" y="886.0" type="line"/>
      <point x="556.0" y="711.0" type="line"/>
      <point x="434.0" y="133.0" type="line"/>
      <point x="603.0" y="128.0" type="line"/>
      <point x="594.0" y="69.0" type="line"/>
    </contour>
    <contour>
      <point x="170.0" y="1303.0" type="qcurve" smooth="yes"/>
      <point x="181.0" y="1389.0"/>
      <point x="309.0" y="1482.0"/>
      <point x="417.0" y="1482.0" type="qcurve" smooth="yes"/>
      <point x="518.0" y="1482.0"/>
      <point x="629.0" y="1382.0"/>
      <point x="616.0" y="1303.0" type="qcurve" smooth="yes"/>
      <point x="605.0" y="1218.0"/>
      <point x="477.0" y="1125.0"/>
      <point x="369.0" y="1125.0" type="qcurve" smooth="yes"/>
      <point x="268.0" y="1125.0"/>
      <point x="157.0" y="1223.0"/>
    </contour>
  </outline>
</glyph>
<glyph name="j" format="2">
  <advance width="664"/>
  <unicode hex="006A"/>
  <outline>
    <contour>
      <point x="132" y="829" type="qcurve"/>
      <point x="-19" y="846" type="line"/>
      <point x="-14" y="898" type="line"/>
      <point x="408" y="991" type="line"/>
      <point x="576" y="991" type="line"/>
      <point x="604" y="886" type="line"/>
      <point x="574" y="769" type="line"/>
      <point x="486" y="350" type="line" smooth="yes"/>
      <point x="412" y="-3"/>
      <point x="16" y="-479"/>
      <point x="-341" y="-479" type="qcurve"/>
      <point x="-551" y="-419" type="line"/>
      <point x="-541" y="-373" type="line"/>
      <point x="-420" y="-371" type="line" smooth="yes"/>
      <point x="-183" y="-367"/>
      <point x="-31" y="-70"/>
      <point x="12" y="169" type="qcurve" smooth="yes"/>
      <point x="29" y="264"/>
      <point x="103" y="634"/>
    </contour>
    <contour>
      <point x="190" y="1273" type="qcurve" smooth="yes"/>
      <point x="202" y="1373"/>
      <point x="330" y="1481"/>
      <point x="438" y="1481" type="qcurve" smooth="yes"/>
      <point x="540" y="1481"/>
      <point x="652" y="1366"/>
      <point x="639" y="1273" type="qcurve" smooth="yes"/>
      <point x="626" y="1176"/>
      <point x="498" y="1067"/>
      <point x="390" y="1067" type="qcurve" smooth="yes"/>
      <point x="289" y="1067"/>
      <point x="177" y="1181"/>
    </contour>
  </outline>
</glyph>
<glyph name="l" format="2">
  <advance width="697"/>
  <unicode hex="006C"/>
  <outline>
    <contour>
      <point x="53" y="-28" type="line"/>
      <point x="-27" y="99" type="line"/>
      <point x="88" y="604" type="line"/>
      <point x="230" y="1407" type="line"/>
      <point x="76" y="1411" type="line"/>
      <point x="97" y="1492" type="line"/>
      <point x="666" y="1538" type="line"/>
      <point x="698" y="1474" type="line"/>
      <point x="515" y="588" type="line"/>
      <point x="426" y="136" type="line"/>
      <point x="605" y="143" type="line"/>
      <point x="596" y="86" type="line"/>
    </contour>
  </outline>
</glyph>
<glyph name="n" format="2">
  <advance width="1374"/>
  <unicode hex="006E"/>
  <outline>
    <contour>
      <point x="62" y="-21" type="line"/>
      <point x="-15" y="105" type="line"/>
      <point x="75" y="484" type="line"/>
      <point x="142" y="820" type="line"/>
      <point x="0" y="844" type="line"/>
      <point x="6" y="896" type="line"/>
      <point x="406" y="991" type="line"/>
      <point x="604" y="957" type="line"/>
      <point x="571" y="702" type="line"/>
      <point x="563" y="680" type="line"/>
      <point x="436" y="151" type="line"/>
      <point x="477" y="46" type="line"/>
    </contour>
    <contour>
      <point x="715" y="-12" type="line"/>
      <point x="654" y="115" type="line"/>
      <point x="791" y="663" type="line" smooth="yes"/>
      <point x="809" y="736"/>
      <point x="773" y="814"/>
      <point x="735" y="814" type="qcurve" smooth="yes"/>
      <point x="693" y="814"/>
      <point x="618" y="737"/>
      <point x="533" y="612" type="qcurve"/>
      <point x="503" y="647" type="line"/>
      <point x="604" y="807"/>
      <point x="850" y="982"/>
      <point x="997" y="982" type="qcurve" smooth="yes"/>
      <point x="1145" y="982"/>
      <point x="1266" y="773"/>
      <point x="1235" y="639" type="qcurve" smooth="yes"/>
      <point x="1120" y="132" type="line"/>
      <point x="1259" y="145" type="line"/>
      <point x="1250" y="87" type="line"/>
    </contour>
  </outline>
</glyph>
<glyph name="o" format="2">
  <advance width="1378"/>
  <unicode hex="006F"/>
  <outline>
    <contour>
      <point x="1.0" y="573.0" type="qcurve" smooth="yes"/>
      <point x="61.0" y="803.0"/>
      <point x="481.0" y="1009.0"/>
      <point x="755.0" y="1001.0" type="qcurve" smooth="yes"/>
      <point x="1023.0" y="992.0"/>
      <point x="1279.0" y="656.0"/>
      <point x="1231.0" y="464.0" type="qcurve" smooth="yes"/>
      <point x="1171.0" y="207.0"/>
      <point x="768.0" y="-42.0"/>
      <point x="473.0" y="-24.0" type="qcurve" smooth="yes"/>
      <point x="200.0" y="-8.0"/>
      <point x="-64.0" y="341.0"/>
    </contour>
    <contour>
      <point x="483.0" y="537.0" type="qcurve" smooth="yes"/>
      <point x="432.0" y="342.0"/>
      <point x="416.0" y="72.0"/>
      <point x="516.0" y="59.0" type="qcurve" smooth="yes"/>
      <point x="612.0" y="46.0"/>
      <point x="716.0" y="305.0"/>
      <point x="750.0" y="502.0" type="qcurve" smooth="yes"/>
      <point x="778.0" y="673.0"/>
      <point x="804.0" y="902.0"/>
      <point x="705.0" y="910.0" type="qcurve" smooth="yes"/>
      <point x="615.0" y="917.0"/>
      <point x="526.0" y="707.0"/>
    </contour>
  </outline>
</glyph>
<glyph name="p" format="2">
  <advance width="1353"/>
  <unicode hex="0070"/>
  <outline>
    <contour>
      <point x="-143" y="-447" type="line"/>
      <point x="81" y="572" type="line"/>
      <point x="129" y="822" type="line"/>
      <point x="98" y="946" type="line"/>
      <point x="390" y="999" type="line"/>
      <point x="606" y="952" type="line"/>
      <point x="570" y="774" type="line"/>
      <point x="632" y="860"/>
      <point x="864" y="999"/>
      <point x="991" y="999" type="qcurve" smooth="yes"/>
      <point x="1127" y="999"/>
      <point x="1280" y="810"/>
      <point x="1280" y="665" type="qcurve" smooth="yes"/>
      <point x="1280" y="406"/>
      <point x="942" y="16"/>
      <point x="587" y="16" type="qcurve" smooth="yes"/>
      <point x="529" y="16"/>
      <point x="436" y="37"/>
      <point x="411" y="52" type="qcurve"/>
      <point x="317" y="-404" type="line"/>
      <point x="501" y="-411" type="line"/>
      <point x="497" y="-460" type="line"/>
      <point x="-99" y="-497" type="line"/>
    </contour>
    <contour>
      <point x="423" y="101" type="line"/>
      <point x="444" y="93"/>
      <point x="497" y="79"/>
      <point x="533" y="79" type="qcurve" smooth="yes"/>
      <point x="646" y="79"/>
      <point x="809" y="479"/>
      <point x="809" y="642" type="qcurve" smooth="yes"/>
      <point x="809" y="740"/>
      <point x="776" y="830"/>
      <point x="722" y="830" type="qcurve" smooth="yes"/>
      <point x="661" y="830"/>
      <point x="588" y="741"/>
      <point x="554" y="702" type="qcurve"/>
      <point x="518" y="552" type="line"/>
    </contour>
  </outline>
</glyph>
<glyph name="s" format="2">
  <advance width="1045"/>
  <unicode hex="0073"/>
  <outline>
    <contour>
      <point x="-60.0" y="152.0" type="qcurve" smooth="yes"/>
      <point x="-61.0" y="209.0"/>
      <point x="33.0" y="280.0"/>
      <point x="124.0" y="280.0" type="qcurve" smooth="yes"/>
      <point x="148.0" y="280.0" type="line"/>
      <point x="151.0" y="216.0" type="line" smooth="yes"/>
      <point x="152.0" y="122.0"/>
      <point x="283.0" y="34.0"/>
      <point x="385.0" y="34.0" type="qcurve" smooth="yes"/>
      <point x="488.0" y="34.0"/>
      <point x="603.0" y="120.0"/>
      <point x="604.0" y="159.0" type="qcurve" smooth="yes"/>
      <point x="607.0" y="206.0"/>
      <point x="503.0" y="276.0"/>
      <point x="355.0" y="338.0" type="qcurve" smooth="yes"/>
      <point x="176.0" y="420.0"/>
      <point x="79.0" y="584.0"/>
      <point x="84.0" y="698.0" type="qcurve" smooth="yes"/>
      <point x="89.0" y="835.0"/>
      <point x="313.0" y="995.0"/>
      <point x="579.0" y="995.0" type="qcurve" smooth="yes"/>
      <point x="774.0" y="995.0"/>
      <point x="963.0" y="888.0"/>
      <point x="964.0" y="823.0" type="qcurve" smooth="yes"/>
      <point x="965.0" y="772.0"/>
      <point x="872.0" y="709.0"/>
      <point x="795.0" y="709.0" type="qcurve" smooth="yes"/>
      <point x="769.0" y="724.0" type="line"/>
      <point x="767.0" y="812.0" type="line" smooth="yes"/>
      <point x="767.0" y="853.0"/>
      <point x="646.0" y="928.0"/>
      <point x="566.0" y="928.0" type="qcurve" smooth="yes"/>
      <point x="481.0" y="928.0"/>
      <point x="392.0" y="867.0"/>
      <point x="392.0" y="817.0" type="qcurve" smooth="yes"/>
      <point x="393.0" y="790.0"/>
      <point x="490.0" y="739.0"/>
      <point x="640.0" y="665.0" type="qcurve" smooth="yes"/>
      <point x="791.0" y="596.0"/>
      <point x="902.0" y="467.0"/>
      <point x="899.0" y="377.0" type="qcurve"/>
      <point x="892.0" y="177.0"/>
      <point x="600.0" y="-26.0"/>
      <point x="360.0" y="-26.0" type="qcurve" smooth="yes"/>
      <point x="147.0" y="-26.0"/>
      <point x="-58.0" y="52.0"/>
    </contour>
  </outline>
</glyph>
<glyph name="t" format="2">
  <advance width="753"/>
  <unicode hex="0074"/>
  <outline>
    <contour>
      <point x="71" y="-13" type="line"/>
      <point x="-4" y="120" type="line"/>
      <point x="81" y="503" type="line"/>
      <point x="146" y="834" type="line"/>
      <point x="-23" y="827" type="line"/>
      <point x="-16" y="895" type="line"/>
      <point x="181" y="917"/>
      <point x="381" y="1068"/>
      <point x="430" y="1226" type="qcurve"/>
      <point x="632" y="1235" type="line"/>
      <point x="671" y="1193" type="line"/>
      <point x="521" y="486" type="line"/>
      <point x="452" y="130" type="line"/>
      <point x="668" y="152" type="line"/>
      <point x="662" y="98" type="line"/>
    </contour>
    <contour>
      <point x="541" y="834" type="line"/>
      <point x="547" y="899" type="line"/>
      <point x="849" y="905" type="line"/>
      <point x="833" y="844" type="line"/>
    </contour>
  </outline>
</glyph>
<glyph name="u" format="2">
  <advance width="1374"/>
  <unicode hex="0075"/>
  <outline>
    <contour>
      <point x="736.0" y="-22.0" type="line"/>
      <point x="682.0" y="76.0" type="line"/>
      <point x="682.0" y="214.0" type="line"/>
      <point x="821.0" y="853.0" type="line"/>
      <point x="773.0" y="922.0" type="line"/>
      <point x="1223.0" y="991.0" type="line"/>
      <point x="1289.0" y="891.0" type="line"/>
      <point x="1158.0" y="357.0" type="line"/>
      <point x="1120.0" y="133.0" type="line"/>
      <point x="1259.0" y="145.0" type="line"/>
      <point x="1249.0" y="87.0" type="line"/>
    </contour>
    <contour>
      <point x="15.0" y="309.0" type="qcurve" smooth="yes"/>
      <point x="131.0" y="839.0" type="line"/>
      <point x="0.0" y="844.0" type="line"/>
      <point x="6.0" y="896.0" type="line"/>
      <point x="405.0" y="970.0" type="line"/>
      <point x="532.0" y="970.0" type="line"/>
      <point x="591.0" y="886.0" type="line"/>
      <point x="476.0" y="325.0" type="line" smooth="yes"/>
      <point x="457" y="231"/>
      <point x="472.0" y="136.0"/>
      <point x="521.0" y="136.0" type="qcurve" smooth="yes"/>
      <point x="576.0" y="136.0"/>
      <point x="667.0" y="201.0"/>
      <point x="719.0" y="275.0" type="qcurve"/>
      <point x="753.0" y="247.0" type="line"/>
      <point x="670.0" y="120.0"/>
      <point x="454.0" y="-17.0"/>
      <point x="279" y="-17" type="qcurve" smooth="yes"/>
      <point x="130.0" y="-17.0"/>
      <point x="-15" y="174"/>
    </contour>
  </outline>
</glyph>
<glyph name="v" format="2">
  <advance width="1090"/>
  <unicode hex="0076"/>
  <outline>
    <contour>
      <point x="-84" y="843" type="line"/>
      <point x="-76" y="897" type="line"/>
      <point x="266" y="970" type="line"/>
      <point x="493" y="970" type="line"/>
      <point x="513" y="549" type="line"/>
      <point x="543" y="129" type="line"/>
      <point x="710" y="265"/>
      <point x="897" y="584"/>
      <point x="897" y="705" type="qcurve" smooth="yes"/>
      <point x="897.0" y="780"/>
      <point x="817" y="872"/>
      <point x="762" y="923" type="qcurve"/>
      <point x="785" y="947"/>
      <point x="858" y="982.0"/>
      <point x="909" y="982.0" type="qcurve" smooth="yes"/>
      <point x="981" y="982"/>
      <point x="1092" y="887"/>
      <point x="1092" y="809" type="qcurve" smooth="yes"/>
      <point x="1092" y="692"/>
      <point x="749" y="203"/>
      <point x="479" y="0" type="qcurve"/>
      <point x="125" y="0" type="line"/>
      <point x="93" y="470" type="line"/>
      <point x="62" y="832" type="line"/>
    </contour>
  </outline>
</glyph>
<glyph name="w" format="2">
  <advance width="1776"/>
  <unicode hex="0077"/>
  <outline>
    <contour>
      <point x="-64.0" y="855.0" type="line"/>
      <point x="-68.0" y="912.0" type="line"/>
      <point x="346.0" y="974.0" type="line"/>
      <point x="499.0" y="959.0" type="line"/>
      <point x="532.0" y="567.0" type="line"/>
      <point x="560.0" y="179.0" type="line"/>
      <point x="673.0" y="280.0"/>
      <point x="903.0" y="644.0"/>
      <point x="896.0" y="751.0" type="qcurve"/>
      <point x="965.0" y="763.0" type="line"/>
      <point x="955.0" y="629.0"/>
      <point x="712.0" y="249.0"/>
      <point x="475.0" y="4.0" type="qcurve"/>
      <point x="133.0" y="10.0" type="line"/>
      <point x="105.0" y="510.0" type="line"/>
      <point x="66.0" y="864.0" type="line"/>
    </contour>
    <contour>
      <point x="758.0" y="923.0" type="line"/>
      <point x="1094.0" y="969.0" type="line"/>
      <point x="1243.0" y="955.0" type="line"/>
      <point x="1255.0" y="570.0" type="line"/>
      <point x="1286.0" y="189.0" type="line"/>
      <point x="1416.0" y="329.0"/>
      <point x="1557.0" y="605.0"/>
      <point x="1557.0" y="703.0" type="qcurve" smooth="yes"/>
      <point x="1557.0" y="761.0"/>
      <point x="1499.0" y="862.0"/>
      <point x="1428.0" y="931.0" type="qcurve" smooth="yes"/>
      <point x="1453.0" y="959.0"/>
      <point x="1520.0" y="989.0"/>
      <point x="1570.0" y="989.0" type="qcurve" smooth="yes"/>
      <point x="1659.0" y="986.0"/>
      <point x="1759.0" y="896.0"/>
      <point x="1759.0" y="820.0" type="qcurve" smooth="yes"/>
      <point x="1759.0" y="709.0"/>
      <point x="1433.0" y="235.0"/>
      <point x="1200.0" y="7.0" type="qcurve"/>
      <point x="858.0" y="13.0" type="line"/>
      <point x="835.0" y="476.0" type="line"/>
      <point x="810.0" y="874.0" type="line"/>
      <point x="760.0" y="868.0" type="line"/>
    </contour>
  </outline>
</glyph>
<glyph name="x" format="2">
  <advance width="1195"/>
  <unicode hex="0078"/>
  <outline>
    <contour>
      <point x="10.0" y="876.0" type="line"/>
      <point x="10.0" y="942.0" type="line"/>
      <point x="532.0" y="992.0" type="line"/>
      <point x="613.0" y="966.0" type="line"/>
      <point x="727.0" y="593.0" type="line"/>
      <point x="923.0" y="109.0" type="line"/>
      <point x="1068.0" y="134.0" type="line"/>
      <point x="1068.0" y="73.0" type="line"/>
      <point x="557.0" y="-13.0" type="line"/>
      <point x="460.0" y="33.0" type="line"/>
      <point x="306.0" y="451.0" type="line"/>
      <point x="151.0" y="860.0" type="line"/>
    </contour>
    <contour>
      <point x="-139.0" y="95.0" type="line"/>
      <point x="-130.0" y="146.0" type="line"/>
      <point x="-91.0" y="137.0" type="line" smooth="yes"/>
      <point x="62.0" y="91.0"/>
      <point x="356.0" y="280.0"/>
      <point x="530.0" y="541.0" type="qcurve" smooth="yes"/>
      <point x="767.0" y="874.0"/>
      <point x="963.0" y="999.0"/>
      <point x="1047.0" y="999.0" type="qcurve" smooth="yes"/>
      <point x="1104.0" y="999.0"/>
      <point x="1169.0" y="927.0"/>
      <point x="1169.0" y="865.0" type="qcurve" smooth="yes"/>
      <point x="1169.0" y="798.0"/>
      <point x="1102.0" y="670.0"/>
      <point x="1070.0" y="651.0" type="qcurve"/>
      <point x="1034.0" y="665.0" type="line"/>
      <point x="1034.0" y="815.0" type="line"/>
      <point x="1034.0" y="833.0"/>
      <point x="1018.0" y="848.0"/>
      <point x="1002.0" y="848.0" type="qcurve" smooth="yes"/>
      <point x="895.0" y="848.0"/>
      <point x="711.0" y="706.0"/>
      <point x="548.0" y="483.0" type="qcurve" smooth="yes"/>
      <point x="284.0" y="51.0"/>
      <point x="5.0" y="-11.0"/>
      <point x="-102.0" y="71.0" type="qcurve"/>
    </contour>
  </outline>
</glyph>
<glyph name="y" format="2">
  <advance width="1100"/>
  <unicode hex="0079"/>
  <outline>
    <contour>
      <point x="-429.0" y="-417.0" type="line"/>
      <point x="-411.0" y="-360.0" type="line"/>
      <point x="-295.0" y="-355.0" type="line" smooth="yes"/>
      <point x="-178.0" y="-350.0"/>
      <point x="156.0" y="-256.0"/>
      <point x="291.0" y="-133.0" type="qcurve" smooth="yes"/>
      <point x="427.0" y="21.0" type="line"/>
      <point x="223.0" y="45.0" type="line"/>
      <point x="218.0" y="82.0"/>
      <point x="111.0" y="739.0"/>
      <point x="84.0" y="865.0" type="qcurve"/>
      <point x="-49.0" y="860.0" type="line"/>
      <point x="-52.0" y="923.0" type="line"/>
      <point x="325.0" y="975.0" type="line"/>
      <point x="482.0" y="975.0" type="line"/>
      <point x="520.0" y="906.0" type="line"/>
      <point x="632.0" y="181.0" type="line"/>
      <point x="783.0" y="355.0"/>
      <point x="866.0" y="620.0"/>
      <point x="866.0" y="646.0" type="qcurve" smooth="yes"/>
      <point x="866.0" y="690.0"/>
      <point x="789.0" y="812.0"/>
      <point x="692.0" y="928.0" type="qcurve" smooth="yes"/>
      <point x="715.0" y="955.0"/>
      <point x="781.0" y="998.0"/>
      <point x="837.0" y="998.0" type="qcurve" smooth="yes"/>
      <point x="922.0" y="998.0"/>
      <point x="1041.0" y="906.0"/>
      <point x="1041.0" y="798.0" type="qcurve" smooth="yes"/>
      <point x="1041.0" y="638.0"/>
      <point x="849.0" y="262.0"/>
      <point x="568.0" y="-29.0" type="qcurve" smooth="yes"/>
      <point x="496.0" y="-110.0" type="line" smooth="yes"/>
      <point x="316.0" y="-297.0"/>
      <point x="-85.0" y="-473.0"/>
      <point x="-263.0" y="-479.0" type="qcurve"/>
    </contour>
  </outline>
</glyph>
<glyph name="braceleft" format="2">
  <advance width="802"/>
  <unicode hex="007B"/>
  <outline>
    <contour>
      <point x="70.0" y="721.0" type="line"/>
      <point x="80.0" y="763.0" type="line"/>
      <point x="131.0" y="769.0" type="line" smooth="yes"/>
      <point x="184.0" y="773.0"/>
      <point x="289.0" y="802.0"/>
      <point x="307.0" y="909.0" type="qcurve" smooth="yes"/>
      <point x="317.0" y="972.0"/>
      <point x="223.0" y="1188.0"/>
      <point x="231.0" y="1276.0" type="qcurve" smooth="yes"/>
      <point x="243.0" y="1406.0"/>
      <point x="456.0" y="1510.0"/>
      <point x="609.0" y="1510.0" type="qcurve" smooth="yes"/>
      <point x="666.0" y="1510.0"/>
      <point x="925.0" y="1505.0"/>
      <point x="941.0" y="1500.0" type="qcurve"/>
      <point x="932.0" y="1448.0" type="line"/>
      <point x="903.0" y="1450.0"/>
      <point x="848.0" y="1451.0"/>
      <point x="808.0" y="1450.0" type="qcurve" smooth="yes"/>
      <point x="738.0" y="1448.0"/>
      <point x="634.0" y="1388.0"/>
      <point x="624.0" y="1290.0" type="qcurve" smooth="yes"/>
      <point x="614.0" y="1201.0"/>
      <point x="690.0" y="998.0"/>
      <point x="673.0" y="911.0" type="qcurve" smooth="yes"/>
      <point x="660.0" y="839.0"/>
      <point x="538.0" y="774.0"/>
      <point x="405.0" y="755.0" type="qcurve"/>
      <point x="537.0" y="744.0"/>
      <point x="624.0" y="648.0"/>
      <point x="599.0" y="573.0" type="qcurve" smooth="yes"/>
      <point x="566.0" y="475.0"/>
      <point x="393.0" y="198.0"/>
      <point x="373.0" y="98.0" type="qcurve" smooth="yes"/>
      <point x="355.0" y="2.0"/>
      <point x="424.0" y="-67.0"/>
      <point x="496.0" y="-67.0" type="qcurve" smooth="yes"/>
      <point x="536.0" y="-67.0"/>
      <point x="589.0" y="-64.0"/>
      <point x="624.0" y="-58.0" type="qcurve"/>
      <point x="619.0" y="-109.0" type="line"/>
      <point x="588.0" y="-112.0"/>
      <point x="356.0" y="-122.0"/>
      <point x="299.0" y="-122.0" type="qcurve" smooth="yes"/>
      <point x="134.0" y="-122.0"/>
      <point x="-25.0" y="16.0"/>
      <point x="-4.0" y="132.0" type="qcurve" smooth="yes"/>
      <point x="21.0" y="266.0"/>
      <point x="252.0" y="579.0"/>
      <point x="252.0" y="693.0" type="qcurve"/>
      <point x="252.0" y="725.0" type="line"/>
    </contour>
  </outline>
</glyph>
<glyph name="braceright" format="2">
  <advance width="802"/>
  <unicode hex="007D"/>
  <outline>
    <contour>
      <point x="-155.0" y="-107.0" type="qcurve"/>
      <point x="-146.0" y="-78.0" type="line"/>
      <point x="-112.0" y="-84.0"/>
      <point x="-78.0" y="-87.0"/>
      <point x="-38.0" y="-86.0" type="qcurve" smooth="yes"/>
      <point x="34.0" y="-84.0"/>
      <point x="128.0" y="10.0"/>
      <point x="145.0" y="106.0" type="qcurve" smooth="yes"/>
      <point x="161.0" y="193.0"/>
      <point x="75.0" y="490.0"/>
      <point x="91.0" y="569.0" type="qcurve" smooth="yes"/>
      <point x="111.0" y="671.0"/>
      <point x="241.0" y="751.0"/>
      <point x="365.0" y="758.0" type="qcurve"/>
      <point x="236.0" y="788.0"/>
      <point x="135.0" y="868.0"/>
      <point x="185.0" y="955.0" type="qcurve" smooth="yes"/>
      <point x="223.0" y="1020.0"/>
      <point x="381.0" y="1221.0"/>
      <point x="396.0" y="1298.0" type="qcurve" smooth="yes"/>
      <point x="413.0" y="1394.0"/>
      <point x="340.0" y="1477.0"/>
      <point x="270.0" y="1477.0" type="qcurve" smooth="yes"/>
      <point x="230.0" y="1477.0"/>
      <point x="172.0" y="1470.0"/>
      <point x="146.0" y="1468.0" type="qcurve"/>
      <point x="151.0" y="1499.0" type="line"/>
      <point x="182.0" y="1502.0"/>
      <point x="430.0" y="1510.0"/>
      <point x="487.0" y="1510.0" type="qcurve" smooth="yes"/>
      <point x="619.0" y="1510.0"/>
      <point x="800.0" y="1372.0"/>
      <point x="763.0" y="1213.0" type="qcurve" smooth="yes"/>
      <point x="738.0" y="1105.0"/>
      <point x="556.0" y="904.0"/>
      <point x="542.0" y="837.0" type="qcurve"/>
      <point x="526.0" y="779.0" type="line"/>
      <point x="731.0" y="778.0" type="line"/>
      <point x="721.0" y="735.0" type="line"/>
      <point x="611.0" y="729.0" type="line" smooth="yes"/>
      <point x="591.0" y="728.0"/>
      <point x="511.0" y="710.0"/>
      <point x="493.0" y="654.0" type="qcurve" smooth="yes"/>
      <point x="449.0" y="494.0"/>
      <point x="562.0" y="240.0"/>
      <point x="537.0" y="122.0" type="qcurve" smooth="yes"/>
      <point x="510.0" y="-5.0"/>
      <point x="297.0" y="-122.0"/>
      <point x="139.0" y="-122.0" type="qcurve" smooth="yes"/>
      <point x="92.0" y="-122.0"/>
      <point x="-125.0" y="-114.0"/>
    </contour>
  </outline>
</glyph>
<glyph name="asciitilde" format="2">
  <advance width="977"/>
  <unicode hex="007E"/>
  <outline>
    <contour>
      <point x="64.0" y="602.0" type="line"/>
      <point x="115.0" y="690.0"/>
      <point x="255.0" y="851.0"/>
      <point x="329.0" y="860.0" type="qcurve"/>
      <point x="711.0" y="746.0" type="line"/>
      <point x="763.0" y="746.0"/>
      <point x="843.0" y="796.0"/>
      <point x="885.0" y="865.0" type="qcurve"/>
      <point x="935.0" y="806.0" type="line"/>
      <point x="893.0" y="711.0"/>
      <point x="760.0" y="542.0"/>
      <point x="665.0" y="532.0" type="qcurve"/>
      <point x="300.0" y="640.0" type="line"/>
      <point x="248.0" y="640.0"/>
      <point x="166.0" y="600.0"/>
      <point x="112.0" y="533.0" type="qcurve"/>
    </contour>
  </outline>
</glyph>
<glyph name="logicalnot" format="2">
  <advance width="938"/>
  <unicode hex="00AC"/>
  <outline>
    <contour>
      <point x="59.0" y="818.0" type="line"/>
      <point x="813.0" y="818.0" type="line"/>
      <point x="813.0" y="360.0" type="line"/>
      <point x="563.0" y="360.0" type="line"/>
      <point x="563.0" y="596.0" type="line"/>
      <point x="59.0" y="596.0" type="line"/>
    </contour>
  </outline>
</glyph>
<glyph name="macron" format="2">
  <advance width="896"/>
  <unicode hex="00AF"/>
  <outline>
    <contour>
      <point x="183.0" y="1154.0" type="line"/>
      <point x="211.0" y="1298.0" type="line"/>
      <point x="845.0" y="1298.0" type="line"/>
      <point x="817.0" y="1154.0" type="line"/>
    </contour>
  </outline>
</glyph>
<glyph name="periodcentered" format="2">
  <advance width="633"/>
  <unicode hex="00B7"/>
  <outline>
    <contour>
      <point x="89.0" y="638.0" type="qcurve" smooth="yes"/>
      <point x="89.0" y="724.0"/>
      <point x="215.0" y="850.0"/>
      <point x="313.0" y="850.0" type="qcurve" smooth="yes"/>
      <point x="411.0" y="850.0"/>
      <point x="539.0" y="724.0"/>
      <point x="539.0" y="638.0" type="qcurve" smooth="yes"/>
      <point x="539.0" y="552.0"/>
      <point x="411.0" y="425.0"/>
      <point x="313.0" y="425.0" type="qcurve" smooth="yes"/>
      <point x="215.0" y="425.0"/>
      <point x="89.0" y="552.0"/>
    </contour>
  </outline>
</glyph>
<glyph name="cedilla" format="2">
  <advance width="896"/>
  <unicode hex="00B8"/>
  <outline>
    <contour>
      <point x="293.0" y="-6.0" type="line"/>
      <point x="233.0" y="-100.0" type="line"/>
      <point x="257.0" y="-86.0"/>
      <point x="359.0" y="-67.0"/>
      <point x="396.0" y="-67.0" type="qcurve" smooth="yes"/>
      <point x="489.0" y="-67.0"/>
      <point x="619.0" y="-160.0"/>
      <point x="613.0" y="-251.0" type="qcurve" smooth="yes"/>
      <point x="605.0" y="-357.0"/>
      <point x="421.0" y="-460.0"/>
      <point x="283.0" y="-460.0" type="qcurve" smooth="yes"/>
      <point x="167.0" y="-460.0"/>
      <point x="33.0" y="-400.0"/>
      <point x="-15.0" y="-340.0" type="qcurve"/>
      <point x="14.0" y="-330.0" type="line"/>
      <point x="63.0" y="-369.0"/>
      <point x="150.0" y="-401.0"/>
      <point x="249.0" y="-401.0" type="qcurve" smooth="yes"/>
      <point x="340.0" y="-401.0"/>
      <point x="426.0" y="-319.0"/>
      <point x="432.0" y="-260.0" type="qcurve" smooth="yes"/>
      <point x="434.0" y="-223.0"/>
      <point x="367.0" y="-139.0"/>
      <point x="313.0" y="-139.0" type="qcurve" smooth="yes"/>
      <point x="276.0" y="-139.0"/>
      <point x="218.0" y="-153.0"/>
      <point x="198.0" y="-162.0" type="qcurve"/>
      <point x="168.0" y="-131.0" type="line"/>
      <point x="261.0" y="10.0" type="line"/>
    </contour>
  </outline>
</glyph>
<glyph name="multiply" format="2">
  <advance width="938"/>
  <unicode hex="00D7"/>
  <outline>
    <contour>
      <point x="195.0" y="250.0" type="line"/>
      <point x="44.0" y="403.0" type="line"/>
      <point x="717.0" y="1076.0" type="line"/>
      <point x="868.0" y="922.0" type="line"/>
    </contour>
    <contour>
      <point x="718.0" y="251.0" type="line"/>
      <point x="45.0" y="923.0" type="line"/>
      <point x="193.0" y="1074.0" type="line"/>
      <point x="866.0" y="401.0" type="line"/>
    </contour>
  </outline>
</glyph>
<glyph name="germandbls" format="2">
  <advance width="1597"/>
  <unicode hex="00DF"/>
  <outline>
    <contour>
      <point x="87.0" y="455.0" type="qcurve"/>
      <point x="214.0" y="1187.0" type="line" smooth="yes"/>
      <point x="245.0" y="1367.0"/>
      <point x="487.0" y="1597.0"/>
      <point x="742.0" y="1597.0" type="qcurve" smooth="yes"/>
      <point x="906.0" y="1597.0"/>
      <point x="1109.0" y="1439.0"/>
      <point x="1115.0" y="1314.0" type="qcurve" smooth="yes"/>
      <point x="1120.0" y="1225.0"/>
      <point x="1048.0" y="1079.0"/>
      <point x="1019.0" y="1018.0" type="qcurve" smooth="yes"/>
      <point x="978.0" y="955.0"/>
      <point x="976.0" y="905.0"/>
      <point x="976.0" y="874.0" type="qcurve" smooth="yes"/>
      <point x="976.0" y="829.0"/>
      <point x="1105.0" y="738.0"/>
      <point x="1241.0" y="669.0" type="qcurve" smooth="yes"/>
      <point x="1391.0" y="593.0"/>
      <point x="1490.0" y="439.0"/>
      <point x="1486.0" y="350.0" type="qcurve" smooth="yes"/>
      <point x="1481.0" y="157.0"/>
      <point x="1229.0" y="-26.0"/>
      <point x="1016.0" y="-26.0" type="qcurve" smooth="yes"/>
      <point x="826.0" y="-26.0"/>
      <point x="645.0" y="52.0"/>
      <point x="643.0" y="152.0" type="qcurve" smooth="yes"/>
      <point x="642.0" y="209.0"/>
      <point x="725.0" y="280.0"/>
      <point x="806.0" y="280.0" type="qcurve" smooth="yes"/>
      <point x="826.0" y="280.0" type="line"/>
      <point x="829.0" y="216.0" type="line" smooth="yes"/>
      <point x="829.0" y="122.0"/>
      <point x="938.0" y="34.0"/>
      <point x="1009.0" y="34.0" type="qcurve" smooth="yes"/>
      <point x="1102.0" y="34.0"/>
      <point x="1191.0" y="110.0"/>
      <point x="1197.0" y="149.0" type="qcurve" smooth="yes"/>
      <point x="1203.0" y="187.0"/>
      <point x="1158.0" y="245.0"/>
      <point x="1015.0" y="324.0" type="qcurve" smooth="yes"/>
      <point x="867.0" y="409.0"/>
      <point x="721.0" y="582.0"/>
      <point x="726.0" y="694.0" type="qcurve" smooth="yes"/>
      <point x="729.0" y="779.0"/>
      <point x="821.0" y="960.0"/>
      <point x="857.0" y="1010.0" type="qcurve" smooth="yes"/>
      <point x="914.0" y="1091.0"/>
      <point x="959.0" y="1204.0"/>
      <point x="959.0" y="1320.0" type="qcurve" smooth="yes"/>
      <point x="959.0" y="1437.0"/>
      <point x="863.0" y="1526.0"/>
      <point x="797.0" y="1526.0" type="qcurve" smooth="yes"/>
      <point x="771.0" y="1526.0"/>
      <point x="691.0" y="1401.0"/>
      <point x="657.0" y="1187.0" type="qcurve" smooth="yes"/>
      <point x="562.0" y="537.0" type="line" smooth="yes"/>
      <point x="484.0" y="37.0"/>
      <point x="10.0" y="-393.0"/>
      <point x="-230.0" y="-393.0" type="qcurve"/>
      <point x="-467.0" y="-341.0" type="line"/>
      <point x="-438.0" y="-276.0" type="line"/>
      <point x="-348.0" y="-276.0" type="line"/>
      <point x="-133.0" y="-274.0"/>
      <point x="16.0" y="27.0"/>
    </contour>
  </outline>
</glyph>
<glyph name="OE" format="2">
  <advance width="2054"/>
  <unicode hex="0152"/>
  <outline>
    <contour>
      <point x="53.0" y="807.0" type="qcurve" smooth="yes"/>
      <point x="116.0" y="1172.0"/>
      <point x="565.0" y="1521.0"/>
      <point x="914.0" y="1513.0" type="qcurve" smooth="yes"/>
      <point x="859.0" y="1517.0"/>
      <point x="928.0" y="1500.0"/>
      <point x="937.0" y="1500.0" type="qcurve" smooth="yes"/>
      <point x="2121.0" y="1500.0" type="line"/>
      <point x="2043.0" y="1167.0" type="line"/>
      <point x="1958.0" y="1167.0" type="line"/>
      <point x="1900.0" y="1430.0" type="line"/>
      <point x="1645.0" y="1430.0" type="line"/>
      <point x="1613.0" y="1408.0" type="line"/>
      <point x="1480.0" y="784.0" type="line"/>
      <point x="1336.0" y="105.0" type="line"/>
      <point x="1361.0" y="78.0" type="line"/>
      <point x="1665.0" y="78.0" type="line"/>
      <point x="1889.0" y="373.0" type="line"/>
      <point x="1971.0" y="373.0" type="line"/>
      <point x="1852.0" y="0.0" type="line"/>
      <point x="863.0" y="0.0" type="line" smooth="yes"/>
      <point x="848.0" y="0.0"/>
      <point x="666.0" y="-5.0"/>
      <point x="646.0" y="-15.0" type="qcurve" smooth="yes"/>
      <point x="278.0" y="-33.0"/>
      <point x="-14.0" y="420.0"/>
    </contour>
    <contour>
      <point x="578.0" y="774.0" type="qcurve" smooth="yes"/>
      <point x="519.0" y="427.0"/>
      <point x="457.0" y="90.0"/>
      <point x="573.0" y="60.0" type="qcurve" smooth="yes"/>
      <point x="583.0" y="43.0"/>
      <point x="762.0" y="76.0"/>
      <point x="833.0" y="117.0" type="qcurve"/>
      <point x="984.0" y="807.0" type="line"/>
      <point x="1100.0" y="1382.0" type="line"/>
      <point x="1034.0" y="1417.0"/>
      <point x="970.0" y="1448.0"/>
      <point x="867.0" y="1450.0" type="qcurve" smooth="yes"/>
      <point x="763.0" y="1443.0"/>
      <point x="641.0" y="1133.0"/>
    </contour>
    <contour>
      <point x="1207.0" y="750.0" type="line"/>
      <point x="1220.0" y="820.0" type="line"/>
      <point x="1729.0" y="831.0" type="line"/>
      <point x="1843.0" y="987.0" type="line"/>
      <point x="1913.0" y="987.0" type="line"/>
      <point x="1826.0" y="578.0" type="line"/>
      <point x="1756.0" y="578.0" type="line"/>
      <point x="1710.0" y="757.0" type="line"/>
    </contour>
  </outline>
</glyph>
<glyph name="dotaccent" format="2">
  <advance width="896"/>
  <unicode hex="02D9"/>
  <outline>
    <contour>
      <point x="409.0" y="1229.0" type="qcurve" smooth="yes"/>
      <point x="409.0" y="1292.0"/>
      <point x="476.0" y="1357.0"/>
      <point x="539.0" y="1357.0" type="qcurve" smooth="yes"/>
      <point x="599.0" y="1357.0"/>
      <point x="669.0" y="1286.0"/>
      <point x="669.0" y="1229.0" type="qcurve" smooth="yes"/>
      <point x="669.0" y="1167.0"/>
      <point x="604.0" y="1100.0"/>
      <point x="539.0" y="1100.0" type="qcurve" smooth="yes"/>
      <point x="479.0" y="1100.0"/>
      <point x="409.0" y="1170.0"/>
    </contour>
  </outline>
</glyph>
<glyph name="tilde" format="2">
  <advance width="896"/>
  <unicode hex="02DC"/>
  <outline>
    <contour>
      <point x="149.0" y="1207.0" type="line"/>
      <point x="186.0" y="1272.0"/>
      <point x="312.0" y="1393.0"/>
      <point x="392.0" y="1393.0" type="qcurve" smooth="yes"/>
      <point x="435.0" y="1393.0"/>
      <point x="509.0" y="1370.0"/>
      <point x="557.0" y="1338.0" type="qcurve" smooth="yes"/>
      <point x="602.0" y="1304.0"/>
      <point x="681.0" y="1267.0"/>
      <point x="721.0" y="1267.0" type="qcurve" smooth="yes"/>
      <point x="771.0" y="1267.0"/>
      <point x="834.0" y="1302.0"/>
      <point x="861.0" y="1332.0" type="qcurve"/>
      <point x="872.0" y="1297.0" type="line"/>
      <point x="830.0" y="1224.0"/>
      <point x="718.0" y="1120.0"/>
      <point x="652.0" y="1120.0" type="qcurve" smooth="yes"/>
      <point x="604.0" y="1120.0"/>
      <point x="505.0" y="1164.0"/>
      <point x="477.0" y="1178.0" type="qcurve" smooth="yes"/>
      <point x="438.0" y="1198.0"/>
      <point x="366.0" y="1247.0"/>
      <point x="330.0" y="1247.0" type="qcurve" smooth="yes"/>
      <point x="285.0" y="1247.0"/>
      <point x="198.0" y="1210.0"/>
      <point x="160.0" y="1173.0" type="qcurve"/>
    </contour>
  </outline>
</glyph>
<glyph name="quotedblright" format="2">
  <advance width="1122"/>
  <unicode hex="201D"/>
  <outline>
    <contour>
      <point x="706.0" y="915.0" type="line"/>
      <point x="811.0" y="977.0"/>
      <point x="925.0" y="1071.0"/>
      <point x="956.0" y="1128.0" type="qcurve"/>
      <point x="841.0" y="1126.0"/>
      <point x="715.0" y="1232.0"/>
      <point x="715.0" y="1324.0" type="qcurve" smooth="yes"/>
      <point x="715.0" y="1400.0"/>
      <point x="829.0" y="1515.0"/>
      <point x="916.0" y="1515.0" type="qcurve" smooth="yes"/>
      <point x="1006.0" y="1515.0"/>
      <point x="1128.0" y="1409.0"/>
      <point x="1128.0" y="1287.0" type="qcurve" smooth="yes"/>
      <point x="1128.0" y="1149.0"/>
      <point x="921.0" y="944.0"/>
      <point x="738.0" y="869.0" type="qcurve"/>
    </contour>
    <contour>
      <point x="193.0" y="915.0" type="line"/>
      <point x="298.0" y="977.0"/>
      <point x="412.0" y="1071.0"/>
      <point x="443.0" y="1128.0" type="qcurve"/>
      <point x="328.0" y="1126.0"/>
      <point x="202.0" y="1232.0"/>
      <point x="202.0" y="1324.0" type="qcurve" smooth="yes"/>
      <point x="202.0" y="1400.0"/>
      <point x="316.0" y="1515.0"/>
      <point x="403.0" y="1515.0" type="qcurve" smooth="yes"/>
      <point x="493.0" y="1515.0"/>
      <point x="615.0" y="1409.0"/>
      <point x="615.0" y="1287.0" type="qcurve" smooth="yes"/>
      <point x="615.0" y="1149.0"/>
      <point x="408.0" y="944.0"/>
      <point x="225.0" y="869.0" type="qcurve"/>
    </contour>
  </outline>
</glyph>
<glyph name="minute" format="2">
  <advance width="586"/>
  <unicode hex="2032"/>
  <outline>
    <contour>
      <point x="249.0" y="964.0" type="line"/>
      <point x="370.0" y="1387.0" type="line" smooth="yes"/>
      <point x="387.0" y="1443.0"/>
      <point x="482.0" y="1498.0"/>
      <point x="543.0" y="1476.0" type="qcurve" smooth="yes"/>
      <point x="601.0" y="1454.0"/>
      <point x="595.0" y="1327.0"/>
      <point x="550.0" y="1280.0" type="qcurve" smooth="yes"/>
      <point x="280.0" y="956.0" type="line"/>
    </contour>
  </outline>
</glyph>
<glyph name="second" format="2">
  <advance width="936"/>
  <unicode hex="2033"/>
  <outline>
    <contour>
      <point x="249.0" y="963.0" type="line"/>
      <point x="370.0" y="1386.0" type="line" smooth="yes"/>
      <point x="387.0" y="1442.0"/>
      <point x="482.0" y="1497.0"/>
      <point x="543.0" y="1475.0" type="qcurve" smooth="yes"/>
      <point x="601.0" y="1453.0"/>
      <point x="595.0" y="1326.0"/>
      <point x="550.0" y="1279.0" type="qcurve" smooth="yes"/>
      <point x="280.0" y="955.0" type="line"/>
    </contour>
    <contour>
      <point x="599.0" y="963.0" type="line"/>
      <point x="720.0" y="1386.0" type="line" smooth="yes"/>
      <point x="737.0" y="1442.0"/>
      <point x="832.0" y="1497.0"/>
      <point x="893.0" y="1475.0" type="qcurve" smooth="yes"/>
      <point x="951.0" y="1453.0"/>
      <point x="945.0" y="1326.0"/>
      <point x="900.0" y="1279.0" type="qcurve" smooth="yes"/>
      <point x="630.0" y="955.0" type="line"/>
    </contour>
  </outline>
</glyph>
<glyph name="guilsinglright" format="2">
  <advance width="836"/>
  <unicode hex="203A"/>
  <outline>
    <contour>
      <point x="716.0" y="586.0" type="line"/>
      <point x="716.0" y="586.0"/>
      <point x="135.0" y="242.0"/>
      <point x="58.0" y="198.0" type="qcurve" smooth="yes"/>
      <point x="-9.0" y="161.0"/>
      <point x="-33.0" y="259.0"/>
      <point x="31.0" y="307.0" type="qcurve" smooth="yes"/>
      <point x="138.0" y="388.0"/>
      <point x="387.0" y="583.0"/>
      <point x="429.0" y="614.0" type="qcurve"/>
      <point x="388.0" y="644.0"/>
      <point x="141.0" y="854.0"/>
      <point x="107.0" y="900.0" type="qcurve" smooth="yes"/>
      <point x="74.0" y="952.0"/>
      <point x="126.0" y="1027.0"/>
      <point x="171.0" y="1010.0" type="qcurve" smooth="yes"/>
      <point x="229.0" y="979.0"/>
      <point x="662.0" y="694.0"/>
      <point x="728.0" y="646.0" type="qcurve"/>
    </contour>
  </outline>
</glyph>
<glyph name="lira" format="2">
  <advance width="1252"/>
  <unicode hex="20A4"/>
  <outline>
    <contour>
      <point x="149.0" y="-18.0" type="qcurve" smooth="yes"/>
      <point x="31.0" y="-19.0"/>
      <point x="-104.0" y="98.0"/>
      <point x="-88.0" y="226.0" type="qcurve" smooth="yes"/>
      <point x="-73.0" y="343.0"/>
      <point x="70.0" y="447.0"/>
      <point x="150.0" y="447.0" type="qcurve" smooth="yes"/>
      <point x="229.0" y="447.0"/>
      <point x="392.0" y="390.0"/>
      <point x="492.0" y="339.0" type="qcurve" smooth="yes"/>
      <point x="638.0" y="259.0"/>
      <point x="901.0" y="158.0"/>
      <point x="961.0" y="159.0" type="qcurve" smooth="yes"/>
      <point x="1040.0" y="160.0"/>
      <point x="1115.0" y="212.0"/>
      <point x="1160.0" y="268.0" type="qcurve"/>
      <point x="1203.0" y="205.0" type="line"/>
      <point x="1169.0" y="117.0"/>
      <point x="978.0" y="-11.0"/>
      <point x="897.0" y="-12.0" type="qcurve" smooth="yes"/>
      <point x="753.0" y="-13.0"/>
      <point x="522.0" y="94.0"/>
      <point x="381.0" y="173.0" type="qcurve" smooth="yes"/>
      <point x="311.0" y="208.0"/>
      <point x="176.0" y="279.0"/>
      <point x="129.0" y="279.0" type="qcurve" smooth="yes"/>
      <point x="75.0" y="279.0"/>
      <point x="-6.0" y="231.0"/>
      <point x="-9.0" y="177.0" type="qcurve" smooth="yes"/>
      <point x="-10.0" y="137.0"/>
      <point x="75.0" y="57.0"/>
      <point x="151.0" y="57.0" type="qcurve" smooth="yes"/>
      <point x="315.0" y="57.0"/>
      <point x="473.0" y="232.0"/>
      <point x="473.0" y="406.0" type="qcurve" smooth="yes"/>
      <point x="473.0" y="491.0"/>
      <point x="420.0" y="697.0"/>
      <point x="365.0" y="812.0" type="qcurve" smooth="yes"/>
      <point x="325.0" y="896.0"/>
      <point x="299.0" y="1072.0"/>
      <point x="320.0" y="1159.0" type="qcurve" smooth="yes"/>
      <point x="349.0" y="1298.0"/>
      <point x="606.0" y="1519.0"/>
      <point x="832.0" y="1521.0" type="qcurve" smooth="yes"/>
      <point x="1012.0" y="1522.0"/>
      <point x="1174.0" y="1428.0"/>
      <point x="1221.0" y="1367.0" type="qcurve"/>
      <point x="1178.0" y="1307.0" type="line"/>
      <point x="1134.0" y="1369.0"/>
      <point x="1014.0" y="1430.0"/>
      <point x="937.0" y="1427.0" type="qcurve" smooth="yes"/>
      <point x="857.0" y="1425.0"/>
      <point x="722.0" y="1315.0"/>
      <point x="702.0" y="1235.0" type="qcurve" smooth="yes"/>
      <point x="681.0" y="1148.0"/>
      <point x="699.0" y="969.0"/>
      <point x="731.0" y="886.0" type="qcurve" smooth="yes"/>
      <point x="771.0" y="785.0"/>
      <point x="788.0" y="598.0"/>
      <point x="787.0" y="514.0" type="qcurve" smooth="yes"/>
      <point x="785.0" y="263.0"/>
      <point x="416.0" y="-17.0"/>
    </contour>
    <contour>
      <point x="156.0" y="622.0" type="line"/>
      <point x="172.0" y="702.0" type="line"/>
      <point x="1017.0" y="702.0" type="line"/>
      <point x="995.0" y="622.0" type="line"/>
    </contour>
    <contour>
      <point x="121.0" y="836.0" type="line"/>
      <point x="137.0" y="916.0" type="line"/>
      <point x="1062.0" y="916.0" type="line"/>
      <point x="1040.0" y="836.0" type="line"/>
    </contour>
  </outline>
</glyph>
<glyph name="naira" format="2">
  <advance width="1340"/>
  <unicode hex="20A6"/>
  <outline>
    <contour>
      <point x="1301.0" y="609.0" type="line"/>
      <point x="1077.0" y="609.0" type="line"/>
      <point x="1072.0" y="609.0" type="line"/>
      <point x="736.0" y="609.0" type="line"/>
      <point x="732.0" y="665.0" type="line"/>
      <point x="1087.0" y="665.0" type="line"/>
      <point x="1091.0" y="665.0" type="line"/>
      <point x="1317.0" y="665.0" type="line"/>
    </contour>
    <contour>
      <point x="-16.0" y="609.0" type="line"/>
      <point x="-2.0" y="665.0" type="line"/>
      <point x="182.0" y="665.0" type="line"/>
      <point x="178.0" y="665.0" type="line"/>
      <point x="732.0" y="665.0" type="line"/>
      <point x="734.0" y="609.0" type="line"/>
      <point x="169.0" y="609.0" type="line"/>
      <point x="168.0" y="609.0" type="line"/>
    </contour>
    <contour>
      <point x="1349.0" y="940.0" type="line"/>
      <point x="1140.0" y="940.0" type="line"/>
      <point x="1143.0" y="940.0" type="line"/>
      <point x="652.0" y="940.0" type="line"/>
      <point x="653.0" y="996.0" type="line"/>
      <point x="1154.0" y="996.0" type="line"/>
      <point x="1157.0" y="996.0" type="line"/>
      <point x="1367.0" y="996.0" type="line"/>
    </contour>
    <contour>
      <point x="29.0" y="940.0" type="line"/>
      <point x="45.0" y="996.0" type="line"/>
      <point x="255.0" y="996.0" type="line"/>
      <point x="250.0" y="996.0" type="line"/>
      <point x="653.0" y="996.0" type="line"/>
      <point x="652.0" y="940.0" type="line"/>
      <point x="241.0" y="940.0" type="line"/>
      <point x="238.0" y="940.0" type="line"/>
    </contour>
    <contour>
      <point x="-160.0" y="0.0" type="line"/>
      <point x="-143.0" y="55.0" type="line"/>
      <point x="8.0" y="100.0" type="line"/>
      <point x="150.0" y="753.0" type="line"/>
      <point x="288.0" y="1406.0" type="line"/>
      <point x="139.0" y="1443.0" type="line"/>
      <point x="152.0" y="1500.0" type="line"/>
      <point x="650.0" y="1500.0" type="line"/>
      <point x="818.0" y="922.0" type="line"/>
      <point x="1001.0" y="354.0" type="line"/>
      <point x="1104.0" y="805.0" type="line"/>
      <point x="1218.0" y="1398.0" type="line"/>
      <point x="1036.0" y="1442.0" type="line"/>
      <point x="1052.0" y="1500.0" type="line"/>
      <point x="1472.0" y="1500.0" type="line"/>
      <point x="1456.0" y="1442.0" type="line"/>
      <point x="1305.0" y="1398.0" type="line"/>
      <point x="1180.0" y="778.0" type="line"/>
      <point x="1010.0" y="0.0" type="line"/>
      <point x="697.0" y="0.0" type="line"/>
      <point x="523.0" y="601.0" type="line"/>
      <point x="334.0" y="1236.0" type="line"/>
      <point x="216.0" y="688.0" type="line"/>
      <point x="95.0" y="100.0" type="line"/>
      <point x="279.0" y="55.0" type="line"/>
      <point x="264.0" y="0.0" type="line"/>
    </contour>
  </outline>
</glyph>
<glyph name="cedi" format="2">
  <advance width="1141"/>
  <unicode hex="20B5"/>
  <outline>
    <contour>
      <point x="96.0" y="814.0" type="qcurve" smooth="yes"/>
      <point x="174.0" y="1167.0"/>
      <point x="635.0" y="1446.0"/>
      <point x="857.0" y="1396.0" type="qcurve" smooth="yes"/>
      <point x="1007.0" y="1361.0"/>
      <point x="1156.0" y="1165.0"/>
      <point x="1139.0" y="992.0" type="qcurve"/>
      <point x="1013.0" y="992.0" type="line"/>
      <point x="1028.0" y="1134.0"/>
      <point x="923.0" y="1281.0"/>
      <point x="874.0" y="1300.0" type="qcurve" smooth="yes"/>
      <point x="755.0" y="1336.0"/>
      <point x="599.0" y="1083.0"/>
      <point x="538.0" y="838.0" type="qcurve" smooth="yes"/>
      <point x="466.0" y="556.0"/>
      <point x="462.0" y="216.0"/>
      <point x="575.0" y="192.0" type="qcurve" smooth="yes"/>
      <point x="704.0" y="165.0"/>
      <point x="915.0" y="296.0"/>
      <point x="1000.0" y="428.0" type="qcurve"/>
      <point x="1022.0" y="414.0" type="line"/>
      <point x="1053.0" y="366.0" type="line"/>
      <point x="936.0" y="193.0"/>
      <point x="710.0" y="55.0"/>
      <point x="526.0" y="68.0" type="qcurve" smooth="yes"/>
      <point x="275.0" y="86.0"/>
      <point x="17.0" y="456.0"/>
    </contour>
    <contour>
      <point x="518.0" y="-122.0" type="line"/>
      <point x="583.0" y="127.0" type="line"/>
      <point x="583.0" y="127.0" type="line"/>
      <point x="730.0" y="771.0" type="line"/>
      <point x="773.0" y="762.0" type="line"/>
      <point x="628.0" y="118.0" type="line"/>
      <point x="628.0" y="118.0" type="line"/>
      <point x="569.0" y="-132.0" type="line"/>
    </contour>
    <contour>
      <point x="912.0" y="1562.0" type="line"/>
      <point x="959.0" y="1567.0" type="line"/>
      <point x="911.0" y="1361.0" type="line"/>
      <point x="911.0" y="1361.0" type="line"/>
      <point x="773.0" y="762.0" type="line"/>
      <point x="730.0" y="771.0" type="line"/>
      <point x="869.0" y="1371.0" type="line"/>
      <point x="869.0" y="1371.0" type="line"/>
    </contour>
  </outline>
</glyph>
<glyph name="liraTurkish" format="2">
  <advance width="1322"/>
  <unicode hex="20BA"/>
  <outline>
    <contour>
      <point x="92.0" y="585.0" type="line"/>
      <point x="75.0" y="640.0" type="line"/>
      <point x="502.0" y="751.0" type="line"/>
      <point x="517.0" y="757.0" type="line"/>
      <point x="1065.0" y="910.0" type="line"/>
      <point x="1061.0" y="847.0" type="line"/>
      <point x="519.0" y="697.0" type="line"/>
      <point x="506.0" y="692.0" type="line"/>
    </contour>
    <contour>
      <point x="86.0" y="800.0" type="line"/>
      <point x="70.0" y="855.0" type="line"/>
      <point x="526.0" y="969.0" type="line"/>
      <point x="547.0" y="977.0" type="line"/>
      <point x="1098.0" y="1122.0" type="line"/>
      <point x="1094.0" y="1060.0" type="line"/>
      <point x="545.0" y="917.0" type="line"/>
      <point x="531.0" y="912.0" type="line"/>
    </contour>
    <contour>
      <point x="610.0" y="177.0" type="line"/>
      <point x="650.0" y="150.0" type="line"/>
      <point x="808.0" y="171.0"/>
      <point x="1057.0" y="417.0"/>
      <point x="1112.0" y="564.0" type="qcurve" smooth="yes"/>
      <point x="1161.0" y="758.0" type="line"/>
      <point x="1243.0" y="758.0" type="line"/>
      <point x="1182.0" y="335.0" type="line"/>
      <point x="1106.0" y="236.0"/>
      <point x="672.0" y="42.0"/>
      <point x="371.0" y="-8.0" type="qcurve"/>
      <point x="246.0" y="-29.0" type="line"/>
      <point x="115.0" y="80.0" type="line"/>
      <point x="156.0" y="165.0" type="line"/>
      <point x="281.0" y="754.0" type="line"/>
      <point x="415.0" y="1419.0" type="line"/>
      <point x="301.0" y="1442.0" type="line"/>
      <point x="310.0" y="1500.0" type="line"/>
      <point x="1028.0" y="1500.0" type="line"/>
      <point x="1009.0" y="1442.0" type="line"/>
      <point x="889.0" y="1419.0" type="line"/>
      <point x="736.0" y="754.0" type="line"/>
    </contour>
  </outline>
</glyph>
<glyph name="notequal" format="2">
  <advance width="938"/>
  <unicode hex="2260"/>
  <outline>
    <contour>
      <point x="101.0" y="330.0" type="line"/>
      <point x="101.0" y="545.0" type="line"/>
      <point x="467.0" y="542.0" type="line"/>
      <point x="816.0" y="545.0" type="line"/>
      <point x="816.0" y="330.0" type="line"/>
      <point x="477.0" y="333.0" type="line"/>
    </contour>
    <contour>
      <point x="101.0" y="687.0" type="line"/>
      <point x="101.0" y="902.0" type="line"/>
      <point x="467.0" y="899.0" type="line"/>
      <point x="816.0" y="902.0" type="line"/>
      <point x="816.0" y="687.0" type="line"/>
      <point x="497.0" y="690.0" type="line"/>
    </contour>
    <contour>
      <point x="147.0" y="86.0" type="line"/>
      <point x="626.0" y="1201.0" type="line"/>
      <point x="797.0" y="1158.0" type="line"/>
      <point x="318.0" y="43.0" type="line"/>
    </contour>
  </outline>
</glyph>
<glyph name="acutecomb.case" format="2">
  <advance width="896"/>
  <outline>
    <contour>
      <point x="407.0" y="1607.0" type="line"/>
      <point x="450.0" y="1589.0" type="line"/>
      <point x="731.0" y="1782.0" type="line" smooth="yes"/>
      <point x="752.0" y="1797.0"/>
      <point x="748.0" y="1860.0"/>
      <point x="748.0" y="1882.0" type="qcurve" smooth="yes"/>
      <point x="748.0" y="1912.0"/>
      <point x="690.0" y="1957.0"/>
      <point x="649.0" y="1957.0" type="qcurve" smooth="yes"/>
      <point x="622.0" y="1957.0"/>
      <point x="554.0" y="1907.0"/>
      <point x="529.0" y="1860.0" type="qcurve" smooth="yes"/>
    </contour>
  </outline>
</glyph>
<glyph name="acutecombstack.case" format="2">
  <advance width="896"/>
  <outline>
    <contour>
      <point x="784.0" y="1879.0" type="qcurve" smooth="yes"/>
      <point x="787.0" y="1851.0"/>
      <point x="765.0" y="1791.0"/>
      <point x="723.0" y="1765.0" type="qcurve" smooth="yes"/>
      <point x="469.0" y="1617.0" type="line"/>
      <point x="442.0" y="1646.0" type="line"/>
      <point x="587.0" y="1880.0" type="line" smooth="yes"/>
      <point x="607.0" y="1912.0"/>
      <point x="658.0" y="1947.0"/>
      <point x="674.0" y="1951.0" type="qcurve" smooth="yes"/>
      <point x="721.0" y="1955.0"/>
      <point x="780.0" y="1905.0"/>
    </contour>
  </outline>
</glyph>
<glyph name="brevecomb.case" format="2">
  <advance width="896"/>
  <outline>
    <contour>
      <point x="960.0" y="1918.0" type="qcurve"/>
      <point x="985.0" y="1920.0" type="line"/>
      <point x="946.0" y="1819.0"/>
      <point x="736.0" y="1618.0"/>
      <point x="613.0" y="1618.0" type="qcurve" smooth="yes"/>
      <point x="474.0" y="1618.0"/>
      <point x="350.0" y="1807.0"/>
      <point x="383.0" y="1937.0" type="qcurve"/>
      <point x="415.0" y="1938.0" type="line"/>
      <point x="437.0" y="1869.0"/>
      <point x="560.0" y="1778.0"/>
      <point x="653.0" y="1778.0" type="qcurve" smooth="yes"/>
      <point x="768.0" y="1778.0"/>
      <point x="934.0" y="1876.0"/>
    </contour>
  </outline>
</glyph>
<glyph name="cedillacomb.case" format="2">
  <advance width="896"/>
  <outline>
    <contour>
      <point x="277.0" y="-10.0" type="line"/>
      <point x="210.0" y="-107.0" type="line"/>
      <point x="235.0" y="-93.0"/>
      <point x="339.0" y="-73.0"/>
      <point x="377.0" y="-73.0" type="qcurve" smooth="yes"/>
      <point x="472.0" y="-73.0"/>
      <point x="611.0" y="-169.0"/>
      <point x="605.0" y="-263.0" type="qcurve" smooth="yes"/>
      <point x="597.0" y="-372.0"/>
      <point x="402.0" y="-477.0"/>
      <point x="261.0" y="-477.0" type="qcurve" smooth="yes"/>
      <point x="143.0" y="-477.0"/>
      <point x="5.0" y="-415.0"/>
      <point x="-44.0" y="-354.0" type="qcurve"/>
      <point x="-11.0" y="-340.0" type="line"/>
      <point x="39.0" y="-380.0"/>
      <point x="125.0" y="-417.0"/>
      <point x="226.0" y="-417.0" type="qcurve" smooth="yes"/>
      <point x="320.0" y="-417.0"/>
      <point x="408.0" y="-332.0"/>
      <point x="414.0" y="-272.0" type="qcurve" smooth="yes"/>
      <point x="416.0" y="-233.0"/>
      <point x="348.0" y="-147.0"/>
      <point x="292.0" y="-147.0" type="qcurve" smooth="yes"/>
      <point x="254.0" y="-147.0"/>
      <point x="195.0" y="-162.0"/>
      <point x="174.0" y="-171.0" type="qcurve"/>
      <point x="144.0" y="-139.0" type="line"/>
      <point x="239.0" y="6.0" type="line"/>
    </contour>
  </outline>
</glyph>
<glyph name="commaaccentcomb" format="2">
  <advance width="896"/>
  <outline>
    <contour>
      <point x="42.0" y="-620.0" type="qcurve"/>
      <point x="51.0" y="-644.0" type="line"/>
      <point x="187.0" y="-584.0"/>
      <point x="391.0" y="-396.0"/>
      <point x="402.0" y="-279.0" type="qcurve" smooth="yes"/>
      <point x="410.0" y="-224.0"/>
      <point x="353.0" y="-159.0"/>
      <point x="287.0" y="-159.0" type="qcurve" smooth="yes"/>
      <point x="224.0" y="-159.0"/>
      <point x="136.0" y="-238.0"/>
      <point x="127.0" y="-300.0" type="qcurve" smooth="yes"/>
      <point x="119.0" y="-352.0"/>
      <point x="176.0" y="-434.0"/>
      <point x="243.0" y="-434.0" type="qcurve"/>
      <point x="222.0" y="-480.0"/>
      <point x="118.0" y="-574.0"/>
    </contour>
  </outline>
</glyph>
<glyph name="diagonalbarO" format="2">
  <advance width="623"/>
  <outline>
    <contour>
      <point x="-95.0" y="-107.0" type="line"/>
      <point x="-12.0" y="69.0" type="line"/>
      <point x="-2.0" y="69.0" type="line"/>
      <point x="338.0" y="813.0" type="line"/>
      <point x="373.0" y="791.0" type="line"/>
      <point x="34.0" y="42.0" type="line"/>
      <point x="44.0" y="42.0" type="line"/>
      <point x="-29.0" y="-117.0" type="line"/>
    </contour>
    <contour>
      <point x="685.0" y="1606.0" type="line"/>
      <point x="752.0" y="1606.0" type="line"/>
      <point x="662.0" y="1412.0" type="line"/>
      <point x="652.0" y="1411.0" type="line"/>
      <point x="373.0" y="791.0" type="line"/>
      <point x="338.0" y="813.0" type="line"/>
      <point x="613.0" y="1429.0" type="line"/>
      <point x="603.0" y="1429.0" type="line"/>
    </contour>
  </outline>
</glyph>
<glyph name="dollar.rvrn" format="2">
  <advance width="920"/>
  <outline>
    <contour>
      <point x="-121.0" y="173.0" type="qcurve"/>
      <point x="-38.0" y="264.0" type="line"/>
      <point x="-6.0" y="209.0"/>
      <point x="167.0" y="81.0"/>
      <point x="295.0" y="81.0" type="qcurve" smooth="yes"/>
      <point x="455.0" y="81.0"/>
      <point x="612.0" y="219.0"/>
      <point x="610.0" y="352.0" type="qcurve" smooth="yes"/>
      <point x="609.0" y="437.0"/>
      <point x="461.0" y="558.0"/>
      <point x="336.0" y="640.0" type="qcurve" smooth="yes"/>
      <point x="215.0" y="722.0"/>
      <point x="29.0" y="973.0"/>
      <point x="37.0" y="1130.0" type="qcurve" smooth="yes"/>
      <point x="46.0" y="1312.0"/>
      <point x="276.0" y="1519.0"/>
      <point x="527.0" y="1519.0" type="qcurve" smooth="yes"/>
      <point x="738.0" y="1519.0"/>
      <point x="900.0" y="1408.0"/>
      <point x="944.0" y="1329.0" type="qcurve"/>
      <point x="858.0" y="1269.0" type="line"/>
      <point x="821.0" y="1329.0"/>
      <point x="630.0" y="1433.0"/>
      <point x="515.0" y="1433.0" type="qcurve" smooth="yes"/>
      <point x="400.0" y="1433.0"/>
      <point x="311.0" y="1349.0"/>
      <point x="311.0" y="1271.0" type="qcurve" smooth="yes"/>
      <point x="311.0" y="1184.0"/>
      <point x="453.0" y="1011.0"/>
      <point x="579.0" y="929.0" type="qcurve" smooth="yes"/>
      <point x="720.0" y="836.0"/>
      <point x="913.0" y="609.0"/>
      <point x="908.0" y="465.0" type="qcurve" smooth="yes"/>
      <point x="901.0" y="225.0"/>
      <point x="538.0" y="-5.0"/>
      <point x="314.0" y="-5.0" type="qcurve" smooth="yes"/>
      <point x="164.0" y="-5.0"/>
      <point x="-60.0" y="97.0"/>
    </contour>
    <contour>
      <point x="277.0" y="-155.0" type="line"/>
      <point x="311.0" y="19.0" type="line"/>
      <point x="313.0" y="19.0" type="line"/>
      <point x="369.0" y="19.0" type="line"/>
      <point x="373.0" y="19.0" type="line"/>
      <point x="341.0" y="-142.0" type="line"/>
    </contour>
    <contour>
      <point x="595.0" y="1589.0" type="line"/>
      <point x="658.0" y="1598.0" type="line"/>
      <point x="637.0" y="1490.0" type="line"/>
      <point x="633.0" y="1490.0" type="line"/>
      <point x="577.0" y="1490.0" type="line"/>
      <point x="575.0" y="1490.0" type="line"/>
    </contour>
  </outline>
</glyph>
<glyph name="eight.lf" format="2">
  <advance width="1275"/>
  <outline>
    <contour>
      <point x="10.0" y="335.0" type="qcurve" smooth="yes"/>
      <point x="10.0" y="507.0"/>
      <point x="312.0" y="737.0"/>
      <point x="599.0" y="832.0" type="qcurve"/>
      <point x="667.0" y="788.0" type="line"/>
      <point x="508.0" y="719.0"/>
      <point x="309.0" y="485.0"/>
      <point x="309.0" y="344.0" type="qcurve" smooth="yes"/>
      <point x="309.0" y="211.0"/>
      <point x="421.0" y="59.0"/>
      <point x="565.0" y="59.0" type="qcurve" smooth="yes"/>
      <point x="696.0" y="59.0"/>
      <point x="850.0" y="217.0"/>
      <point x="850.0" y="342.0" type="qcurve" smooth="yes"/>
      <point x="850.0" y="455.0"/>
      <point x="636.0" y="657.0"/>
      <point x="541.0" y="725.0" type="qcurve" smooth="yes"/>
      <point x="378.0" y="840.0"/>
      <point x="255.0" y="1011.0"/>
      <point x="255.0" y="1132.0" type="qcurve" smooth="yes"/>
      <point x="255.0" y="1291.0"/>
      <point x="503.0" y="1533.0"/>
      <point x="819.0" y="1533.0" type="qcurve" smooth="yes"/>
      <point x="1031.0" y="1533.0"/>
      <point x="1235.0" y="1356.0"/>
      <point x="1225.0" y="1223.0" type="qcurve" smooth="yes"/>
      <point x="1215.0" y="1091.0"/>
      <point x="990.0" y="912.0"/>
      <point x="735.0" y="817.0" type="qcurve"/>
      <point x="676.0" y="863.0" type="line"/>
      <point x="821.0" y="954.0"/>
      <point x="944.0" y="1119.0"/>
      <point x="944.0" y="1226.0" type="qcurve" smooth="yes"/>
      <point x="944.0" y="1305.0"/>
      <point x="869.0" y="1457.0"/>
      <point x="781.0" y="1457.0" type="qcurve" smooth="yes"/>
      <point x="690.0" y="1457.0"/>
      <point x="597.0" y="1310.0"/>
      <point x="597.0" y="1189.0" type="qcurve" smooth="yes"/>
      <point x="597.0" y="1103.0"/>
      <point x="765.0" y="977.0"/>
      <point x="878.0" y="886.0" type="qcurve" smooth="yes"/>
      <point x="1059.0" y="754.0"/>
      <point x="1195.0" y="566.0"/>
      <point x="1195.0" y="415.0" type="qcurve" smooth="yes"/>
      <point x="1195.0" y="233.0"/>
      <point x="852.0" y="-11.0"/>
      <point x="500.0" y="-11.0" type="qcurve" smooth="yes"/>
      <point x="246.0" y="-11.0"/>
      <point x="10.0" y="176.0"/>
    </contour>
  </outline>
</glyph>
<glyph name="five.lc" format="2">
  <advance width="1100"/>
  <outline>
    <contour>
      <point x="214.0" y="-458.0" type="qcurve" smooth="yes"/>
      <point x="125.0" y="-473.0"/>
      <point x="-64.0" y="-436.0"/>
      <point x="-132.0" y="-414.0" type="qcurve" smooth="yes"/>
      <point x="-80.0" y="-279.0" type="line"/>
      <point x="-42.0" y="-290.0"/>
      <point x="80.0" y="-338.0"/>
      <point x="149.0" y="-338.0" type="curve"/>
      <point x="333.0" y="-338.0"/>
      <point x="596.0" y="-245.0"/>
      <point x="596.0" y="-85.0" type="curve"/>
      <point x="596.0" y="60.0"/>
      <point x="389.0" y="183.0"/>
      <point x="235.0" y="177.0" type="curve"/>
      <point x="117.0" y="173.0" type="line"/>
      <point x="54.0" y="293.0" type="line"/>
      <point x="170.0" y="928.0" type="line"/>
      <point x="202.0" y="961.0" type="line"/>
      <point x="202.0" y="981.0"/>
      <point x="1014.0" y="989.0"/>
      <point x="1028.0" y="989.0" type="qcurve"/>
      <point x="998.0" y="716.0" type="line"/>
      <point x="991.0" y="716.0"/>
      <point x="364.0" y="747.0"/>
      <point x="364.0" y="765.0" type="qcurve" smooth="yes"/>
      <point x="364.0" y="789.0"/>
      <point x="353.0" y="808.0"/>
      <point x="353.0" y="808.0" type="qcurve" smooth="yes"/>
      <point x="306.0" y="639.0"/>
      <point x="265.0" y="529.0"/>
      <point x="231.0" y="486.0" type="qcurve"/>
      <point x="456.0" y="483.0" type="line"/>
      <point x="724.0" y="481.0"/>
      <point x="1036.0" y="268.0"/>
      <point x="1036.0" y="76.0" type="qcurve" smooth="yes"/>
      <point x="1036.0" y="-192.0"/>
      <point x="560.0" y="-459.0"/>
    </contour>
  </outline>
</glyph>
<glyph name="five.lf" format="2">
  <advance width="1150"/>
  <outline>
    <contour>
      <point x="-77.0" y="193.0" type="qcurve" smooth="yes"/>
      <point x="-77.0" y="249.0"/>
      <point x="-15.0" y="337.0"/>
      <point x="43.0" y="337.0" type="qcurve"/>
      <point x="79.0" y="336.0" type="line"/>
      <point x="79.0" y="256.0" type="line" smooth="yes"/>
      <point x="79.0" y="161.0"/>
      <point x="201.0" y="62.0"/>
      <point x="324.0" y="62.0" type="qcurve" smooth="yes"/>
      <point x="473.0" y="62.0"/>
      <point x="653.0" y="305.0"/>
      <point x="653.0" y="531.0" type="qcurve" smooth="yes"/>
      <point x="653.0" y="745.0"/>
      <point x="352.0" y="828.0"/>
      <point x="217.0" y="778.0" type="qcurve" smooth="yes"/>
      <point x="171.0" y="758.0" type="line"/>
      <point x="121.0" y="816.0" type="line"/>
      <point x="271.0" y="1467.0" type="line"/>
      <point x="303.0" y="1500.0" type="line"/>
      <point x="1119.0" y="1500.0" type="line"/>
      <point x="1070.0" y="1243.0" type="line"/>
      <point x="326.0" y="1243.0" type="line"/>
      <point x="315.0" y="1232.0" type="line"/>
      <point x="296.0" y="1152.0"/>
      <point x="229.0" y="929.0"/>
      <point x="221.0" y="862.0" type="qcurve"/>
      <point x="476.0" y="955.0" type="line"/>
      <point x="745.0" y="968.0"/>
      <point x="1078.0" y="756.0"/>
      <point x="1078.0" y="536.0" type="qcurve" smooth="yes"/>
      <point x="1078.0" y="302.0"/>
      <point x="643.0" y="-17.0"/>
      <point x="342.0" y="-17.0" type="qcurve" smooth="yes"/>
      <point x="104.0" y="-17.0"/>
      <point x="-77.0" y="106.0"/>
    </contour>
  </outline>
</glyph>
<glyph name="four.lc" format="2">
  <advance width="1320"/>
  <outline>
    <contour>
      <point x="-20.0" y="22.0" type="line"/>
      <point x="-38.0" y="120.0" type="line"/>
      <point x="967.0" y="971.0" type="line"/>
      <point x="1153.0" y="895.0" type="line"/>
      <point x="1162.0" y="845.0" type="line"/>
      <point x="1038.0" y="131.0" type="line"/>
      <point x="1033.0" y="104.0" type="line"/>
      <point x="978.0" y="-234.0" type="line"/>
      <point x="978.0" y="-368.0" type="line"/>
      <point x="565.0" y="-426.0" type="line"/>
      <point x="544.0" y="-395.0" type="line"/>
      <point x="632.0" y="106.0" type="line"/>
      <point x="640.0" y="131.0" type="line"/>
      <point x="718.0" y="589.0" type="line"/>
      <point x="168.0" y="195.0" type="line"/>
      <point x="172.0" y="185.0" type="line"/>
      <point x="860.0" y="179.0" type="line"/>
      <point x="1276.0" y="179.0" type="line"/>
      <point x="1244.0" y="21.0" type="line"/>
      <point x="849.0" y="15.0" type="line"/>
    </contour>
  </outline>
</glyph>
<glyph name="horizontalbarH" format="2">
  <advance width="1848"/>
  <outline>
    <contour>
      <point x="1865.0" y="1140.0" type="line"/>
      <point x="674.0" y="1140.0" type="line"/>
      <point x="674.0" y="1140.0" type="line"/>
      <point x="651.0" y="1140.0" type="line"/>
      <point x="658.0" y="1176.0" type="line"/>
      <point x="681.0" y="1176.0" type="line"/>
      <point x="681.0" y="1176.0" type="line"/>
      <point x="1882.0" y="1176.0" type="line"/>
    </contour>
    <contour>
      <point x="198.0" y="1140.0" type="line"/>
      <point x="196.0" y="1176.0" type="line"/>
      <point x="638.0" y="1176.0" type="line"/>
      <point x="638.0" y="1176.0" type="line"/>
      <point x="658.0" y="1176.0" type="line"/>
      <point x="651.0" y="1140.0" type="line"/>
      <point x="631.0" y="1140.0" type="line"/>
      <point x="631.0" y="1140.0" type="line"/>
    </contour>
  </outline>
</glyph>
<glyph name="hungarumlautcomb.case" format="2">
  <advance width="896"/>
  <outline>
    <contour>
      <point x="786.0" y="1901.0" type="qcurve" smooth="yes"/>
      <point x="786.0" y="1872.0"/>
      <point x="785.0" y="1831.0"/>
      <point x="763.0" y="1814.0" type="qcurve" smooth="yes"/>
      <point x="490.0" y="1605.0" type="line"/>
      <point x="457.0" y="1616.0" type="line"/>
      <point x="581.0" y="1896.0" type="line" smooth="yes"/>
      <point x="596.0" y="1933.0"/>
      <point x="661.0" y="1985.0"/>
      <point x="695.0" y="1985.0" type="qcurve" smooth="yes"/>
      <point x="722.0" y="1985.0"/>
      <point x="786.0" y="1927.0"/>
    </contour>
    <contour>
      <point x="1077.0" y="1901.0" type="qcurve" smooth="yes"/>
      <point x="1077.0" y="1872.0"/>
      <point x="1076.0" y="1831.0"/>
      <point x="1054.0" y="1814.0" type="qcurve" smooth="yes"/>
      <point x="781.0" y="1605.0" type="line"/>
      <point x="748.0" y="1616.0" type="line"/>
      <point x="872.0" y="1896.0" type="line" smooth="yes"/>
      <point x="887.0" y="1933.0"/>
      <point x="952.0" y="1985.0"/>
      <point x="986.0" y="1985.0" type="qcurve" smooth="yes"/>
      <point x="1013.0" y="1985.0"/>
      <point x="1077.0" y="1927.0"/>
    </contour>
  </outline>
</glyph>
<glyph name="macronbelowcomb" format="2">
  <advance width="896"/>
  <outline>
    <contour>
      <point x="-108.0" y="-374.0" type="line"/>
      <point x="-71.0" y="-240.0" type="line"/>
      <point x="563.0" y="-240.0" type="line"/>
      <point x="526.0" y="-374.0" type="line"/>
    </contour>
  </outline>
</glyph>
<glyph name="six.lc" format="2">
  <advance width="1353"/>
  <outline>
    <contour>
      <point x="48.0" y="471.0" type="qcurve" smooth="yes"/>
      <point x="68.0" y="824.0"/>
      <point x="776.0" y="1327.0"/>
      <point x="1224.0" y="1381.0" type="qcurve"/>
      <point x="1242.0" y="1300.0" type="line"/>
      <point x="915.0" y="1224.0"/>
      <point x="505.0" y="759.0"/>
      <point x="477.0" y="446.0" type="qcurve" smooth="yes"/>
      <point x="463.0" y="248.0"/>
      <point x="533.0" y="51.0"/>
      <point x="604.0" y="44.0" type="qcurve" smooth="yes"/>
      <point x="726.0" y="37.0"/>
      <point x="842.0" y="215.0"/>
      <point x="863.0" y="410.0" type="qcurve" smooth="yes"/>
      <point x="876.0" y="523.0"/>
      <point x="820.0" y="668.0"/>
      <point x="734.0" y="668.0" type="qcurve" smooth="yes"/>
      <point x="705.0" y="668.0"/>
      <point x="651.0" y="647.0"/>
      <point x="614.0" y="618.0" type="qcurve"/>
      <point x="606.0" y="683.0" type="line"/>
      <point x="645.0" y="721.0"/>
      <point x="790.0" y="806.0"/>
      <point x="887.0" y="806.0" type="qcurve" smooth="yes"/>
      <point x="1083.0" y="806.0"/>
      <point x="1268.0" y="598.0"/>
      <point x="1256.0" y="439.0" type="qcurve" smooth="yes"/>
      <point x="1240.0" y="214.0"/>
      <point x="874.0" y="-31.0"/>
      <point x="589.0" y="-31.0" type="qcurve" smooth="yes"/>
      <point x="319.0" y="-31.0"/>
      <point x="34.0" y="241.0"/>
    </contour>
  </outline>
</glyph>
<glyph name="two.lf" format="2">
  <advance width="1144"/>
  <outline>
    <contour>
      <point x="-85.0" y="12.0" type="qcurve"/>
      <point x="-126.0" y="69.0" type="line"/>
      <point x="17.0" y="198.0" type="line" smooth="yes"/>
      <point x="163.0" y="339.0"/>
      <point x="677.0" y="875.0"/>
      <point x="687.0" y="1076.0" type="qcurve" smooth="yes"/>
      <point x="692.0" y="1197.0"/>
      <point x="597.0" y="1303.0"/>
      <point x="466.0" y="1303.0" type="qcurve" smooth="yes"/>
      <point x="382.0" y="1303.0"/>
      <point x="213.0" y="1214.0"/>
      <point x="156.0" y="1157.0" type="qcurve"/>
      <point x="135.0" y="1228.0" type="line"/>
      <point x="210.0" y="1358.0"/>
      <point x="455.0" y="1513.0"/>
      <point x="648.0" y="1513.0" type="qcurve" smooth="yes"/>
      <point x="856.0" y="1513.0"/>
      <point x="1094.0" y="1337.0"/>
      <point x="1094.0" y="1196.0" type="qcurve" smooth="yes"/>
      <point x="1094.0" y="957.0"/>
      <point x="554.0" y="484.0"/>
      <point x="340.0" y="329.0" type="qcurve"/>
      <point x="341.0" y="327.0" type="line"/>
      <point x="397.0" y="329.0"/>
      <point x="472.0" y="330.0"/>
      <point x="528.0" y="332.0" type="qcurve"/>
      <point x="691.0" y="293.0"/>
      <point x="752.854" y="278.363"/>
      <point x="875.0" y="248.0" type="qcurve"/>
      <point x="950.0" y="391.0" type="line"/>
      <point x="1020.0" y="369.0" type="line"/>
      <point x="862.0" y="-26.0" type="line"/>
      <point x="669.0" y="39.0"/>
      <point x="406.0" y="94.0"/>
      <point x="325.0" y="98.0" type="qcurve" smooth="yes"/>
      <point x="238.0" y="101.0"/>
      <point x="-20.0" y="50.0"/>
    </contour>
  </outline>
</glyph>
<glyph name="zero.lf" format="2">
  <advance width="1383"/>
  <outline>
    <contour>
      <point x="80.0" y="760.0" type="qcurve" smooth="yes"/>
      <point x="148.0" y="1105.0"/>
      <point x="549.0" y="1512.0"/>
      <point x="859.0" y="1513.0" type="qcurve" smooth="yes"/>
      <point x="1126.0" y="1514.0"/>
      <point x="1394.0" y="1074.0"/>
      <point x="1331.0" y="750.0" type="qcurve" smooth="yes"/>
      <point x="1266.0" y="415.0"/>
      <point x="876.0" y="-13.0"/>
      <point x="561.0" y="-13.0" type="qcurve" smooth="yes"/>
      <point x="291.0" y="-13.0"/>
      <point x="15.0" y="430.0"/>
    </contour>
    <contour>
      <point x="551.0" y="794.0" type="qcurve" smooth="yes"/>
      <point x="487.0" y="438.0"/>
      <point x="488.0" y="71.0"/>
      <point x="589.0" y="71.0" type="qcurve" smooth="yes"/>
      <point x="692.0" y="71.0"/>
      <point x="803.0" y="459.0"/>
      <point x="865.0" y="768.0" type="qcurve" smooth="yes"/>
      <point x="924.0" y="1075.0"/>
      <point x="924.0" y="1443.0"/>
      <point x="825.0" y="1443.0" type="qcurve" smooth="yes"/>
      <point x="724.0" y="1442.0"/>
      <point x="608.0" y="1111.0"/>
    </contour>
  </outline>
</glyph>
<glyph name="zero.tab" format="2">
  <advance width="1423"/>
  <outline>
    <contour>
      <point x="67.0" y="780.0" type="qcurve" smooth="yes"/>
      <point x="138.0" y="1109.0"/>
      <point x="553.0" y="1512.0"/>
      <point x="863.0" y="1513.0" type="qcurve" smooth="yes"/>
      <point x="1150.0" y="1514.0"/>
      <point x="1423.0" y="1053.0"/>
      <point x="1352.0" y="730.0" type="qcurve" smooth="yes"/>
      <point x="1285.0" y="423.0"/>
      <point x="880.0" y="-13.0"/>
      <point x="565.0" y="-13.0" type="qcurve" smooth="yes"/>
      <point x="278.0" y="-13.0"/>
      <point x="-3.0" y="452.0"/>
    </contour>
    <contour>
      <point x="534.0" y="806.0" type="qcurve" smooth="yes"/>
      <point x="478.0" y="487.0"/>
      <point x="471.0" y="63.0"/>
      <point x="592.0" y="63.0" type="qcurve" smooth="yes"/>
      <point x="715.0" y="63.0"/>
      <point x="826.0" y="412.0"/>
      <point x="888.0" y="740.0" type="qcurve" smooth="yes"/>
      <point x="945.0" y="1047.0"/>
      <point x="947.0" y="1435.0"/>
      <point x="828.0" y="1435.0" type="qcurve" smooth="yes"/>
      <point x="707.0" y="1434.0"/>
      <point x="590.0" y="1123.0"/>
    </contour>
  </outline>
</glyph>
